<?xml version="1.0" encoding="utf-8"?>
<!-- Generator: Adobe Illustrator 19.0.0, SVG Export Plug-In . SVG Version: 6.00 Build 0)  -->
<svg version="1.1" id="Layer_1" xmlns="http://www.w3.org/2000/svg" xmlns:xlink="http://www.w3.org/1999/xlink" x="0px" y="0px"
	 viewBox="0 0 64.5 35.4" style="enable-background:new 0 0 64.5 35.4;" xml:space="preserve">
<g id="XMLID_12_">
	<path id="XMLID_20_" d="M27.6,17.4v0.5h4.5V0h-4.9l-0.1,1.9c0,0-14.6,0.2-19.7-1.9c0,0-4.6,5.4-7.5,6.6c1.2,1.9,7.7,9.2,7.7,9.2
		L27.6,17.4z M22.9,6.5c1.5,0,2.7,1.2,2.7,2.7c0,1.5-1.2,2.7-2.7,2.7c-1.5,0-2.7-1.2-2.7-2.7C20.2,7.7,21.4,6.5,22.9,6.5z M14.4,5.7
		c1.5,0,2.7,1.2,2.7,2.7c0,1.5-1.2,2.7-2.7,2.7c-1.5,0-2.7-1.2-2.7-2.7C11.7,6.9,12.9,5.7,14.4,5.7z"/>
	<path id="XMLID_19_" d="M34.3,18.4c0,0,8.2-1.2,8.2-9.4s-8.2-9-8.2-9V18.4z"/>
	<path id="XMLID_16_" d="M64.5,8.7c0.3,0.1-6-8.6-6-8.6s-4.6,1-17.4,0c0,0,2.5,4.1,2.5,10.1c-0.1,6.1-2.5,8.1-2.5,8.2
		c0,0.2,17.3-1,18-2.1C59.7,15.1,64.2,8.6,64.5,8.7z M51.9,11.8c-1.5,0-2.7-1.2-2.7-2.7c0-1.5,1.2-2.7,2.7-2.7
		c1.5,0,2.7,1.2,2.7,2.7C54.5,10.6,53.3,11.8,51.9,11.8z"/>
	<path id="XMLID_15_" d="M29,33.2c1.2,1.2,2.5,1.9,4.1,2.1l0-3.8c-0.4-0.1-0.7-0.4-1-0.7c-1.1-1.1-1.1-3,0-4.1c1.1-1.1,3-1.1,4.1,0
		c1.1,1.1,1.1,3,0,4.1c-0.3,0.3-0.4,0.4-0.8,0.6l0,4c1.7-0.2,3.3-0.9,4.7-2.2c3.1-3.1,3.1-8,0-11.1C37,19,32,19,29,22.1
		C25.9,25.2,25.9,30.1,29,33.2z"/>
</g>
</svg>
