<?xml version="1.0" encoding="utf-8"?>
<!-- Generator: Adobe Illustrator 19.0.0, SVG Export Plug-In . SVG Version: 6.00 Build 0)  -->
<svg version="1.1" id="Layer_1" xmlns="http://www.w3.org/2000/svg" xmlns:xlink="http://www.w3.org/1999/xlink" x="0px" y="0px"
	 viewBox="0 0 84.5 23.6" style="enable-background:new 0 0 84.5 23.6;" xml:space="preserve">
<g id="XMLID_14_">
	<path id="path4778" d="M12.4,3.5c7.8-3.1,16.8,1.6,21.4,4.7c1.8,1.2,3.3,4,2.8,6.1C34.6,22.6,23,21.7,23,21.7
		c-9.6-1.5-12.6-8.2-13.5-12.5C9,7.1,10.4,4.2,12.4,3.5L12.4,3.5z M49.8,8.1c4.6-3,13.6-7.7,21.4-4.7c2,0.8,3.4,3.6,2.9,5.7
		c-0.8,3.7-3.1,9.2-9.8,11.6c-2,0.7-5.5,1.1-7.6,0.8c-3.6-0.5-8.5-2.1-9.8-7.3C46.4,12.1,48,9.3,49.8,8.1z M1,5.8
		C1.3,6.5,2,6,2.5,6.1c1,0.4,1.8,1.5,2.4,2.3c1.2,1.6,2.1,3.4,3.3,5c1,1.3,2.1,2.6,3.3,3.8c1.9,1.8,3.9,3.5,6.3,4.7
		c2.4,1.2,4.6,1.5,7.2,1.7c2.6,0.1,5.3-0.5,7.6-1.7c2-1,3.7-2.5,4.8-4.4c0.7-1.1,1.2-2.4,1.6-3.6c0.2-0.8,0.2-2.1,0.7-2.8
		c0.9-1.2,3.3-1.5,4.5-0.6c0.7,0.5,0.7,0.9,0.9,1.7c0.3,1.4,0.7,2.8,1.3,4.1c1.9,3.7,5.2,6.2,9.3,7.1c2.9,0.6,6.2,0.6,9-0.4
		c4.5-1.6,8.3-5,11.2-8.8c1.1-1.4,1.8-2.9,2.8-4.3c0.8-1.2,1.8-2.7,3-3.4C82,6.2,82.5,6,82.7,6.1c0.8,0.6,1.1-1.4,1.2-1.7
		c0.1-0.3,0.4-0.8,0.5-1.3c0.2-0.7-1.8-1.9-3.9-2.3C72-1,63,0.4,54.8,3.3c-1.9,0.7-3.8,1.4-5.6,2.3c-1.6,0.8-3.4,1.4-5.1,1.7
		c-0.5,0.1-1,0-1.5,0.1c-0.1,0-0.3-0.1-0.4-0.1c-0.1,0-0.1,0.2-0.1,0.2c-1.1,0-2.3,0-3.3-0.3c-1.3-0.3-2.2-0.9-3.4-1.5
		c-1-0.5-2.1-0.9-3.1-1.3C26.7,2,20.9,0.5,14.9,0.1C11.1-0.1,7.3,0,3.6,0.9C3.1,1,2.6,1.1,2.1,1.2C1.9,1.2,1.6,1.3,1.4,1.4
		C1,1.5,0.6,1.6,0.5,1.7c-0.1,0-0.1,0.1-0.2,0.1c-0.5,0.3-0.2,1,0,1.4C0.6,4,0.8,4.9,1,5.8"/>
</g>
</svg>
