<?xml version="1.0" encoding="utf-8"?>
<!-- Generator: Adobe Illustrator 19.0.0, SVG Export Plug-In . SVG Version: 6.00 Build 0)  -->
<svg version="1.1" id="Layer_1" xmlns="http://www.w3.org/2000/svg" xmlns:xlink="http://www.w3.org/1999/xlink" x="0px" y="0px"
	 viewBox="0 0 51.7 39.6" style="enable-background:new 0 0 51.7 39.6;" xml:space="preserve">
<path id="XMLID_14_" d="M45.8,13.4c-0.6-0.7-1.4-1.2-2.4-1.2c0,0-0.9,0-1.9,0c-1.1,0-1.9-0.9-2-2C39,6.8,36.7,0,26.2,0
	c-4.4,0-12.8,1.4-14,10.2c-0.2,1.1-1,2-2,2H8.3c-1,0-1.9,0.5-2.4,1.2c-0.7,0.9-0.9,2.7-1.1,3.8L0.3,34.5c-0.3,1.1-0.5,2.9,0.1,3.8
	c0.6,0.8,1.4,1.3,2.4,1.3h46c1,0,1.9-0.5,2.4-1.3c0.6-0.9,0.4-2.7,0.1-3.8l-4.4-17.3C46.6,16.1,46.5,14.3,45.8,13.4z M36.5,10.2
	c0.2,1.1-0.1,2-0.6,2c-0.4,0-1.5-0.5-2.5-1c-1.8-0.9-4.1-1.4-7.2-1.4c-2,0-4.9,0.3-7.5,1.5c-1,0.5-2.2,1-2.8,1c-0.6,0-1.1-0.9-0.9-2
	c1-6.2,7.4-7.3,10.5-7.4C33.7,2.6,35.9,7.4,36.5,10.2z M10.5,15.2c0,0,0.8,0,1.7,0c1,0,1.2,0.7,0.8,1.8c-0.3,0.7-0.5,1.5-0.7,2.4
	c-0.2,1.1-0.9,2-1.8,2c-0.9,0-1.6-0.9-1.6-2v-2.5C9,15.8,9.6,15.2,10.5,15.2z M17,21.4c-1.1,0-2-0.9-1.7-2c0.2-1,0.6-1.9,1.2-2.7
	c0.6-0.9,2.2-1.5,3.3-1.5h12.2c1.1,0,2.7,0.6,3.3,1.5c0.6,0.9,0.9,1.8,1.2,2.6c0.3,1.1-0.5,2-1.6,2h-4.4h-6H17L17,21.4z M41.1,21.4
	c-0.9,0-1.6-0.9-1.8-2c-0.1-0.7-0.3-1.5-0.6-2.3c-0.4-1-0.1-1.8,0.8-1.8h1.7c0.8,0,1.5,0.6,1.5,1.6v2.5C42.7,20.5,42,21.4,41.1,21.4
	z"/>
</svg>
