<?xml version="1.0" encoding="utf-8"?>
<!-- Generator: Adobe Illustrator 19.0.0, SVG Export Plug-In . SVG Version: 6.00 Build 0)  -->
<svg version="1.1" id="Layer_1" xmlns="http://www.w3.org/2000/svg" xmlns:xlink="http://www.w3.org/1999/xlink" x="0px" y="0px"
	 viewBox="0 0 72.9 39.2" style="enable-background:new 0 0 72.9 39.2;" xml:space="preserve">
<g id="XMLID_14_">
	<path id="XMLID_15_" d="M56.8,22.4V8.5c0-4.7-3.8-8.5-8.5-8.5H24.6c-4.7,0-8.5,3.8-8.5,8.5v12.8C10.3,22.9,0,27.5,0,31.4
		c0,3.1,4.8,5.9,13.4,7.7l0.4,0.1l0.3-0.3c2.7-3.4,12.3-5.8,23.2-5.8c10.5,0,19.9,2.3,23,5.5l0.3,0.3l0.4-0.1
		c7.7-1.8,11.9-4.4,11.9-7.3C72.9,28.5,64.7,24.3,56.8,22.4z M16.1,23.6v0.3C16,23.8,16.1,23.7,16.1,23.6z"/>
</g>
</svg>
