<?xml version="1.0" encoding="utf-8"?>
<!-- Generator: Adobe Illustrator 19.0.0, SVG Export Plug-In . SVG Version: 6.00 Build 0)  -->
<svg version="1.1" id="Layer_1" xmlns="http://www.w3.org/2000/svg" xmlns:xlink="http://www.w3.org/1999/xlink" x="0px" y="0px"
	 viewBox="0 0 28.2 38.2" style="enable-background:new 0 0 28.2 38.2;" xml:space="preserve">
<path id="XMLID_11_" d="M20.4,14.7c-0.1,0-0.3,0-0.5,0c-1.8,0-3.7,0.9-4.7,2.3l-1.1,1.6L13,17c-1-1.4-2.9-2.3-4.7-2.3
	c-0.2,0-0.3,0-0.5,0c-2,0.2-3.4,0.8-4.2,1.9c-0.8,1.1-1.1,2.6-0.7,4.5c0.7,4.2,8.1,11.5,11.2,14.2c3.1-2.7,10.4-9.9,11.1-14.2
	c0.3-1.9,0.1-3.5-0.7-4.5C23.7,15.6,22.4,14.9,20.4,14.7z M21.8,22.4c-0.5,2.9-5.5,7.9-7.7,9.7c-2.1-1.8-7.2-6.8-7.7-9.7
	c-0.2-1.3,0-2.4,0.5-3.1c0.6-0.7,1.5-1.2,2.9-1.3c0.1,0,0.2,0,0.3,0c1.2,0,2.5,0.6,3.2,1.6l0.8,1.1l0.8-1.1c0.7-1,2-1.6,3.2-1.6
	c0.1,0,0.2,0,0.3,0c1.4,0.1,2.3,0.6,2.9,1.3C21.8,20,22,21.1,21.8,22.4z M26.8,14.9c-1.3-1.7-3.3-2.7-6.1-3c-0.2,0-0.5,0-0.8,0
	c-1.3,0-2.6,0.3-3.8,0.9c0,0,0,0,0,0c0-0.1,0-0.2,0-0.4C18.9,11,21.4,7,23.4,0.3L22.4,0c-2,6.3-4.2,10.2-6.7,11.4
	c-0.4-0.4-0.9-0.7-1.5-0.7c-0.7,0-1.3,0.4-1.7,0.9C7.7,10,3.7,1.3,3.6,1.2l-1,0.5c0.2,0.4,4.3,9.2,9.5,10.9c0,0,0,0.1,0,0.1
	c0,0,0,0,0,0c-1.2-0.6-2.5-0.9-3.8-0.9c-0.3,0-0.5,0-0.8,0c-2.8,0.3-4.8,1.3-6.1,3c-1.3,1.7-1.7,3.9-1.3,6.7c1,6.1,11.2,15,12.4,16
	c0.5,0.4,1,0.6,1.6,0.6c0.6,0,1.2-0.2,1.6-0.6c0.5-0.4,11.2-9.8,12.3-16C28.5,18.9,28.1,16.6,26.8,14.9z M14.1,11.2
	c0.4,0,0.7,0.1,1,0.4c-0.3,0.1-0.7,0.2-1,0.2c-0.4,0-0.7,0-1.1-0.1C13.3,11.4,13.7,11.2,14.1,11.2z M12.6,12.8
	c0.4,0.1,0.8,0.1,1.2,0.1c0.1,0,0.2,0,0.3,0c0.5,0,1-0.1,1.4-0.3c0,0,0,0.1,0,0.1c0,0.1,0,0.3-0.1,0.4c-0.5,0.3-1,0.6-1.4,1
	c-0.4-0.4-0.9-0.7-1.4-1C12.7,13,12.6,12.9,12.6,12.8z M26.7,21.4C25.7,27,15.3,36.2,14.9,36.6c-0.2,0.2-0.5,0.3-0.7,0.3
	c-0.3,0-0.5-0.1-0.7-0.3C13,36.2,2.5,27,1.6,21.4c-0.4-2.3,0-4.2,1-5.6c1.1-1.4,2.7-2.2,5.1-2.4c0.2,0,0.4,0,0.6,0
	c2.1,0,4.4,1,5.8,2.9c1.4-1.9,3.7-2.9,5.8-2.9c0.2,0,0.4,0,0.6,0c2.4,0.3,4.1,1.1,5.1,2.4C26.7,17.1,27,19,26.7,21.4z"/>
</svg>
