<?xml version="1.0" encoding="utf-8"?>
<!-- Generator: Adobe Illustrator 19.0.0, SVG Export Plug-In . SVG Version: 6.00 Build 0)  -->
<svg version="1.1" id="Layer_1" xmlns="http://www.w3.org/2000/svg" xmlns:xlink="http://www.w3.org/1999/xlink" x="0px" y="0px"
	 viewBox="0 0 38.2 39.1" style="enable-background:new 0 0 38.2 39.1;" xml:space="preserve">
<g id="XMLID_2_">
	<path id="XMLID_4_" d="M31.1,13.9l-0.3-2.5c-0.2-1.4-1.6-2.9-3.3-3.2c-2.7-0.5-7-1.1-11.7-0.5c-4.2,0.5-7.3,1.7-9.2,2.7
		c-1.5,0.8-2.4,2.8-2.2,4.2c0.2,1.4,0.4,2.6,0.4,2.6s-3.2,5.2-4.7,13.3c-1.5,8.1,9.8,9.8,21,8.1c11.2-1.7,17.6-5.5,17.1-11.5
		C37.7,21.1,31.1,13.9,31.1,13.9z"/>
	<path id="XMLID_3_" d="M2.7,8.3c-1.5,0.8-2,2.7-1.3,4.2l2.2,4.4l-0.3-2c-0.3-2.1,1-4.5,2.8-5.5c1.9-1,5.2-2.3,9.7-2.8
		c1.3-0.2,2.7-0.2,4.1-0.2c3.3,0,6.1,0.4,8,0.8c2.1,0.4,4,2.3,4.3,4.2l0.3,2.1c0.1,0.1,0.2,0.2,0.3,0.3L33,8.2
		C33,6.5,31.8,5,30.1,4.8c-2.8-0.3-7.3-0.6-12-0.5l-0.5-1.8c0.3-0.3,0.5-0.7,0.5-1.1c0-0.8-0.7-1.5-1.5-1.5c-0.3,0-0.7,0.1-0.9,0.3
		c0.7,0.3,1.2,1,1.2,1.8c0,0.3-0.1,0.6-0.2,0.9c0,0,0,0,0,0l0.4,1.4c-0.6,0-1.1,0.1-1.7,0.1c-0.1,0-0.2,0-0.3,0V3.8
		c0.7-0.2,1.3-0.9,1.3-1.7c0-1-0.8-1.8-1.8-1.8c-1,0-1.8,0.8-1.8,1.8c0,0.8,0.5,1.5,1.3,1.7v0.9C9.4,5.3,5.2,7,2.7,8.3z"/>
</g>
</svg>
