<?xml version="1.0" standalone="no"?>
<!DOCTYPE svg PUBLIC "-//W3C//DTD SVG 20010904//EN"
 "http://www.w3.org/TR/2001/REC-SVG-20010904/DTD/svg10.dtd">
<svg version="1.0" xmlns="http://www.w3.org/2000/svg"
 width="600.000000pt" height="600.000000pt" viewBox="0 0 600.000000 600.000000"
 preserveAspectRatio="xMidYMid meet">
<metadata>
Created by potrace 1.11, written by Peter Selinger 2001-2013
</metadata>
<g transform="translate(0.000000,600.000000) scale(0.100000,-0.100000)"
fill="#000000" stroke="none">
<path d="M1207 3664 c-2 -2 -21 -6 -42 -10 -170 -27 -296 -158 -355 -370 -53
-195 -47 -294 25 -364 58 -56 113 -68 339 -69 217 -2 259 -10 276 -56 23 -60
-30 -143 -105 -164 -26 -7 -161 -11 -376 -11 l-336 0 -36 -134 c-21 -73 -37
-139 -37 -145 0 -9 123 -11 498 -8 273 1 508 6 521 10 104 29 157 59 219 124
55 59 105 164 137 283 55 211 26 327 -96 380 -56 24 -66 24 -389 33 -78 2
-122 8 -137 18 -59 37 -28 150 51 188 38 18 64 20 365 20 179 1 327 3 329 5 3
4 38 130 48 173 2 12 9 34 14 48 23 60 52 56 -450 54 -253 -1 -461 -4 -463 -5z"/>
<path d="M2296 3662 c5 -5 95 -67 199 -138 l190 -129 -239 -5 -240 -5 -28
-105 c-84 -311 -170 -637 -174 -655 -2 -11 -18 -69 -35 -130 -16 -60 -32 -122
-35 -137 l-5 -28 285 0 c157 0 286 3 286 6 0 3 30 117 67 252 36 136 78 294
93 351 l28 104 17 -59 c9 -32 19 -70 22 -83 4 -25 55 -218 73 -281 6 -19 14
-53 18 -75 l8 -39 203 254 c240 301 234 294 220 255 -5 -17 -37 -131 -70 -255
-33 -124 -71 -265 -84 -315 -14 -49 -25 -96 -25 -102 0 -10 63 -13 283 -13
l284 0 32 123 c18 67 35 129 36 137 2 8 27 101 55 205 57 209 54 198 65 240 4
17 39 147 77 290 76 282 87 326 88 338 0 4 -128 7 -283 7 l-284 0 -124 -157
c-67 -87 -126 -160 -129 -163 -3 -3 -41 -50 -84 -105 -44 -55 -81 -102 -83
-104 -8 -11 -16 17 -105 367 l-42 162 -285 0 c-157 0 -281 -4 -275 -8z"/>
<path d="M4125 3662 c6 -5 66 -47 135 -93 69 -46 127 -86 130 -89 3 -3 32 -23
65 -45 l60 -40 -239 -5 -239 -5 -13 -45 c-6 -25 -38 -142 -69 -260 -32 -118
-73 -273 -92 -345 -20 -71 -36 -134 -38 -140 -5 -23 -18 -74 -41 -155 -13 -46
-24 -90 -24 -97 0 -11 103 -13 564 -13 559 1 566 1 639 24 89 27 154 71 206
136 45 57 88 159 105 250 31 162 -8 260 -114 287 l-35 9 50 13 c135 33 230
150 270 333 23 108 -3 196 -70 238 -77 47 -103 49 -699 50 -315 0 -556 -3
-551 -8z m672 -300 c64 -30 66 -107 4 -172 -41 -42 -100 -60 -201 -60 l-58 0
29 113 c17 61 32 118 35 125 6 18 147 14 191 -6z m-140 -427 c48 -19 66 -47
65 -102 -2 -87 -59 -169 -137 -196 -55 -19 -175 -23 -175 -5 0 7 14 65 31 128
16 63 35 132 40 153 l10 37 64 0 c36 0 82 -7 102 -15z"/>
</g>
</svg>
