<?xml version="1.0" standalone="no"?>
<!DOCTYPE svg PUBLIC "-//W3C//DTD SVG 20010904//EN"
 "http://www.w3.org/TR/2001/REC-SVG-20010904/DTD/svg10.dtd">
<svg version="1.0" xmlns="http://www.w3.org/2000/svg"
 width="350.000000pt" height="350.000000pt" viewBox="0 0 350.000000 350.000000"
 preserveAspectRatio="xMidYMid meet">
<metadata>
Created by potrace 1.11, written by Peter Selinger 2001-2013
</metadata>
<g transform="translate(0.000000,350.000000) scale(0.100000,-0.100000)"
fill="#000000" stroke="none">
<path d="M0 1750 l0 -1750 1750 0 1750 0 0 1750 0 1750 -1750 0 -1750 0 0
-1750z m2002 1326 c445 -80 843 -405 1012 -827 65 -161 87 -272 93 -461 6
-197 -9 -315 -63 -478 -70 -210 -183 -387 -348 -548 -189 -183 -409 -301 -666
-357 -114 -24 -354 -30 -475 -11 -583 90 -1030 523 -1140 1106 -26 137 -25
362 3 495 58 273 171 490 357 684 218 227 494 367 810 410 93 13 309 6 417
-13z"/>
<path d="M1370 1835 l0 -225 29 0 29 0 3 115 c4 108 6 116 30 141 20 20 37 26
73 26 77 2 85 -13 88 -156 l3 -121 30 0 30 0 3 115 c3 134 -10 173 -68 203
-36 18 -132 20 -172 2 -16 -6 -18 0 -18 59 l0 66 -30 0 -30 0 0 -225z"/>
<path d="M1714 2036 c-8 -34 4 -66 25 -66 23 0 41 19 41 45 0 46 -55 63 -66
21z"/>
<path d="M1814 2047 c-3 -9 -4 -28 -2 -44 2 -22 8 -28 28 -28 23 0 25 4 25 40
0 34 -3 40 -23 43 -13 2 -24 -3 -28 -11z"/>
<path d="M1715 1938 c-3 -8 -4 -83 -3 -168 l3 -155 30 0 30 0 0 165 0 165 -28
3 c-16 2 -29 -2 -32 -10z"/>
<path d="M1810 1781 l0 -171 30 0 30 0 -2 168 -3 167 -27 3 -28 3 0 -170z"/>
<path d="M574 1926 c-80 -36 -86 -130 -11 -161 18 -7 57 -16 87 -20 92 -12
115 -38 65 -71 -55 -36 -155 1 -155 57 0 14 -7 19 -30 19 -26 0 -30 -4 -30
-27 1 -72 56 -113 153 -113 80 0 123 18 141 61 l12 29 23 -31 c30 -40 77 -59
148 -59 70 0 119 22 150 69 30 44 29 51 -5 51 -17 0 -37 -11 -55 -30 -52 -55
-161 -49 -192 10 -8 16 -15 31 -15 35 0 3 68 5 150 5 l150 0 0 -70 0 -70 30 0
30 0 0 65 c0 141 33 205 106 205 31 0 34 3 34 30 0 26 -4 30 -27 30 -16 -1
-46 -7 -68 -15 -24 -9 -41 -11 -43 -5 -2 6 -17 10 -33 10 -29 0 -29 -1 -29
-57 -1 -57 -1 -58 -14 -28 -31 70 -112 105 -210 91 -50 -8 -89 -35 -117 -79
l-18 -30 -6 25 c-4 14 -20 38 -36 54 -25 24 -39 29 -92 31 -38 2 -74 -2 -93
-11z m144 -58 c5 -7 11 -22 14 -33 2 -14 12 -21 36 -23 30 -3 32 -6 31 -40 0
-20 -3 -31 -6 -24 -8 20 -58 42 -121 53 -31 6 -64 12 -74 15 -24 7 -30 31 -12
49 19 19 117 21 132 3z m343 -17 c16 -16 29 -34 29 -40 0 -7 -38 -11 -110 -11
-122 0 -133 8 -85 55 20 21 34 25 80 25 49 0 60 -4 86 -29z"/>
<path d="M2135 1933 c-33 -9 -84 -52 -101 -85 -21 -40 -21 -116 0 -155 27 -54
72 -77 151 -81 85 -4 130 16 160 70 l21 37 10 -32 c15 -51 64 -77 146 -77 101
0 148 30 148 95 0 46 -46 80 -125 95 -81 15 -105 25 -105 45 0 21 33 35 84 35
48 0 76 -18 76 -51 0 -15 7 -19 36 -19 34 0 36 1 29 28 -10 43 -34 73 -70 88
-70 29 -181 9 -206 -38 -6 -10 -9 -35 -7 -55 4 -48 35 -69 126 -86 87 -17 110
-33 88 -62 -11 -16 -26 -20 -69 -20 -62 0 -97 22 -97 62 0 20 -5 23 -35 23
-19 0 -35 -4 -35 -10 0 -6 -9 -6 -25 0 -22 8 -27 6 -34 -13 -17 -43 -49 -62
-108 -62 -49 0 -58 3 -84 33 -33 37 -38 85 -14 131 18 36 60 53 121 49 43 -3
51 -7 69 -35 16 -27 25 -32 45 -27 34 8 34 9 20 44 -20 48 -62 72 -133 76 -34
1 -71 0 -82 -3z"/>
<path d="M2751 1923 c-61 -30 -72 -107 -20 -145 13 -10 51 -23 84 -28 81 -14
105 -26 105 -50 0 -27 -43 -43 -93 -37 -46 6 -77 32 -77 64 0 20 -5 23 -36 23
-35 0 -35 -1 -29 -32 17 -78 59 -108 153 -108 74 0 124 20 141 56 30 67 -10
114 -114 134 -81 15 -105 25 -105 45 0 21 33 35 83 35 46 0 77 -21 77 -53 0
-13 9 -17 35 -17 33 0 35 2 29 28 -10 44 -33 73 -69 88 -46 19 -122 17 -164
-3z"/>
<path d="M1922 1643 c2 -22 8 -28 28 -28 20 0 25 5 25 25 0 20 -6 26 -28 28
-26 3 -28 1 -25 -25z"/>
</g>
</svg>
