<?xml version="1.0" standalone="no"?>
<!DOCTYPE svg PUBLIC "-//W3C//DTD SVG 20010904//EN"
 "http://www.w3.org/TR/2001/REC-SVG-20010904/DTD/svg10.dtd">
<svg version="1.0" xmlns="http://www.w3.org/2000/svg"
 width="283.000000pt" height="283.000000pt" viewBox="0 0 283.000000 283.000000"
 preserveAspectRatio="xMidYMid meet">
<metadata>
Created by potrace 1.11, written by Peter Selinger 2001-2013
</metadata>
<g transform="translate(0.000000,283.000000) scale(0.100000,-0.100000)"
fill="#000000" stroke="none">
<path d="M1285 2820 c-184 -18 -341 -63 -505 -145 -303 -152 -544 -411 -672
-721 -218 -529 -97 -1134 308 -1538 204 -204 464 -341 747 -393 140 -26 391
-23 527 6 145 31 235 63 371 133 397 204 668 575 745 1023 12 68 15 134 11
275 -4 164 -8 198 -35 300 -106 406 -371 733 -746 922 -213 107 -510 162 -751
138z m390 -109 c252 -54 464 -165 646 -339 206 -195 330 -420 390 -705 31
-143 31 -361 0 -504 -59 -282 -180 -502 -380 -696 -113 -110 -216 -182 -355
-248 -504 -240 -1100 -136 -1496 261 -188 187 -308 410 -366 681 -23 105 -26
378 -5 484 80 412 336 757 698 943 150 77 301 123 483 146 72 9 297 -5 385
-23z"/>
<path d="M1236 2434 c-136 -33 -264 -133 -322 -254 -39 -80 -54 -148 -54 -245
0 -267 127 -409 455 -510 66 -20 156 -48 200 -62 264 -84 361 -179 372 -368
13 -195 -80 -344 -254 -407 -80 -30 -260 -36 -357 -14 -185 43 -309 177 -346
371 l-12 65 -54 0 -54 0 0 -43 c0 -59 33 -183 67 -254 39 -82 150 -191 234
-231 100 -48 187 -65 324 -66 88 0 136 4 180 18 194 58 325 195 375 392 52
204 3 416 -126 533 -80 73 -190 123 -414 186 -296 84 -383 133 -437 243 -25
51 -28 68 -28 157 0 94 2 105 33 168 57 116 159 176 329 192 148 15 312 -40
394 -133 44 -50 95 -146 105 -199 6 -32 7 -33 60 -33 52 0 54 1 54 28 0 44
-27 131 -61 201 -38 76 -131 174 -206 214 -116 62 -317 85 -457 51z"/>
</g>
</svg>
