<?xml version="1.0" encoding="utf-8"?>
<!-- Generator: Adobe Illustrator 19.0.0, SVG Export Plug-In . SVG Version: 6.00 Build 0)  -->
<svg version="1.1" id="Layer_1" xmlns="http://www.w3.org/2000/svg" xmlns:xlink="http://www.w3.org/1999/xlink" x="0px" y="0px"
	 viewBox="0 0 82.6 150" style="enable-background:new 0 0 82.6 150;" xml:space="preserve">
<style type="text/css">
	.st0{fill-rule:evenodd;clip-rule:evenodd;fill:#4C4D4D;}
	.st1{fill-rule:evenodd;clip-rule:evenodd;fill:#373737;}
	.st2{fill-rule:evenodd;clip-rule:evenodd;fill:#6E6E6C;}
	.st3{fill-rule:evenodd;clip-rule:evenodd;}
	.st4{fill:#F1E91C;}
	.st5{fill-rule:evenodd;clip-rule:evenodd;fill:#F1E91C;}
	.st6{fill-rule:evenodd;clip-rule:evenodd;fill:#FFFFFF;}
	.st7{fill:#FFFFFF;}
</style>
<path id="XMLID_89_" class="st0" d="M80,61.8L80,61.8c1.4,0,2.6-1.2,2.6-2.6v-6.9c0-1.4-1.2-2.6-2.6-2.6l0,0c-1.4,0-2.6,1.2-2.6,2.6
	v6.9C77.3,60.7,78.5,61.8,80,61.8L80,61.8z"/>
<path id="XMLID_88_" class="st0" d="M80,83.7L80,83.7c1,0,1.8-0.8,1.8-1.8V67.5c0-1-0.8-1.8-1.8-1.8h0c-1,0-1.8,0.8-1.8,1.8v14.3
	C78.2,82.9,79,83.7,80,83.7L80,83.7z"/>
<path id="XMLID_87_" class="st0" d="M1.8,91.1L1.8,91.1c1,0,1.8-0.8,1.8-1.8V60.7c0-1-0.8-1.8-1.8-1.8l0,0c-1,0-1.8,0.8-1.8,1.8
	v28.6C0,90.3,0.8,91.1,1.8,91.1L1.8,91.1z"/>
<path id="XMLID_86_" class="st1" d="M73.1,120.1c-0.6,0.4-1.2,0.8-1.7,1.2c-4.9,5.7-5,12-5.4,17.1c-0.1,1.8-0.3,3.4-0.7,4.9
	c-0.9,2.9-2.8,5-7.5,5.7c-0.3,0-0.6,0.1-0.9,0.1c-0.5,0.1-1,0.1-1.6,0.2c-9,0.9-19,0.9-28,0c-0.6,0-1.1-0.1-1.6-0.2
	c-0.3,0-0.6-0.1-0.9-0.1c-4.7-0.6-6.6-2.7-7.5-5.7c-0.5-1.5-0.7-3.1-0.7-4.9c-0.4-5.2-0.5-11.4-5.4-17.1c-0.5-0.4-1-0.8-1.7-1.2
	c-1.2-0.8-2.5-2-3.6-3.3c-1.9-1.5-2.8-3.9-3.4-6.6c-0.1-0.6-0.2-1.2-0.2-1.8v-0.5v-0.7v-1.1c0-22,0-44,0-65.9c0-3.6,2.7-7.2,5.6-9.1
	C8,31,8.1,30.9,8.1,30.9c0.1-0.1,0.1-0.1,0.2-0.2c1.1-0.8,2-1.6,2.8-2.5c3.7-4.2,5.2-10.4,5.7-16.1c0.1-0.9,0.1-1.8,0.2-2.7
	c0-0.3,0-0.5,0-0.8c0-5.1,2.4-7.6,7.2-7.9c0.4,0,0.9-0.1,1.3-0.1c10.3-0.9,21.2-0.9,31.4,0c0.4,0,0.9,0.1,1.3,0.1
	c4.8,0.3,7.2,2.7,7.2,7.9c0,0.3,0,0.5,0,0.8c0,0.9,0.1,1.8,0.2,2.7c0.6,7,2.5,14.3,8.5,18.6c0.1,0.1,0.1,0.1,0.2,0.2
	c0.1,0.1,0.2,0.1,0.3,0.2c2.9,1.9,5.6,5.5,5.6,9.1c0,22,0,44,0,65.9v1.1v0.7v0.5c0,0.6-0.1,1.2-0.2,1.8
	C79.5,114.4,76.6,117.8,73.1,120.1L73.1,120.1z"/>
<path id="XMLID_85_" class="st2" d="M73.1,120.1c-2,1.4-4.5,1.5-7,1.5H16.6c-2.5,0-4.7-0.4-6.5-1c-0.2-0.1-0.4-0.3-0.6-0.4
	c-3.5-2.3-6.4-5.7-7-9.9c-0.1-0.6-0.2-1.2-0.2-1.8v-0.5v-0.7v-1.1c0-22,0-44,0-65.9c0-3.6,2.7-7.2,5.6-9.1C8,31,8.1,30.9,8.1,30.9
	c0.1-0.1,0.1-0.1,0.2-0.2c2.8-2,5.1-2.2,8.6-2.2H66c3.7,0,5.3,0.1,8.3,2.2c0.1,0.1,0.1,0.1,0.2,0.2c0.1,0.1,0.2,0.1,0.3,0.2
	c2.9,1.9,5.6,5.5,5.6,9.1c0,22,0,44,0,65.9v1.1v0.7v0.5c0,0.6-0.1,1.2-0.2,1.8C79.5,114.4,76.6,117.8,73.1,120.1L73.1,120.1z"/>
<path id="XMLID_84_" class="st3" d="M11,118.7c1.8,0.6,3.7,0.8,5.6,0.8h49.6c1.9,0,4.2,0,5.8-1.1c2.9-1.9,5.6-4.8,6.1-8.5l0-0.1
	l0-0.1c0.1-0.4,0.2-0.9,0.2-1.4v-2.3c0-22,0-44,0-65.9c0-2.9-2.4-5.9-4.7-7.4c-0.1-0.1-0.2-0.1-0.3-0.2l-0.1,0l-0.1,0
	c-0.1,0-0.1-0.1-0.2-0.1c-2.5-1.8-3.9-1.9-7.1-1.9H16.9c-3,0-5,0.1-7.4,1.9c-0.1,0-0.1,0.1-0.2,0.1l-0.1,0l-0.1,0
	c-0.1,0.1-0.2,0.1-0.3,0.2c-2.3,1.5-4.7,4.5-4.7,7.4c0,22,0,44,0,65.9v2.3c0,0.5,0.1,0.9,0.2,1.4l0,0.1l0,0.1
	c0.5,3.5,3.2,6.5,6.1,8.5C10.7,118.5,10.9,118.6,11,118.7L11,118.7z"/>
<polygon id="XMLID_83_" class="st4" points="40.9,48.9 41.8,48.9 41.8,44.4 40.9,44.4 40.9,48.9 "/>
<polygon id="XMLID_82_" class="st4" points="49.9,51.1 50.7,51.5 52.9,47.7 52.1,47.2 49.9,51.1 "/>
<polygon id="XMLID_81_" class="st4" points="56.5,57.5 57,58.3 60.9,56 60.4,55.2 56.5,57.5 "/>
<polygon id="XMLID_80_" class="st4" points="59.1,66.3 59.1,67.2 63.6,67.2 63.6,66.3 59.1,66.3 "/>
<polygon id="XMLID_79_" class="st4" points="56.9,75.3 56.4,76 60.3,78.3 60.8,77.5 56.9,75.3 "/>
<polygon id="XMLID_78_" class="st4" points="50.5,81.9 49.7,82.4 52,86.2 52.8,85.8 50.5,81.9 "/>
<polygon id="XMLID_77_" class="st4" points="41.7,84.5 40.8,84.5 40.8,89 41.7,89 41.7,84.5 "/>
<polygon id="XMLID_76_" class="st4" points="32.7,82.3 31.9,81.8 29.7,85.7 30.5,86.2 32.7,82.3 "/>
<polygon id="XMLID_75_" class="st4" points="26.1,75.9 25.6,75.1 21.7,77.3 22.2,78.1 26.1,75.9 "/>
<polygon id="XMLID_74_" class="st4" points="23.5,67 23.5,66.1 19,66.1 19,67 23.5,67 "/>
<polygon id="XMLID_73_" class="st4" points="25.7,58.1 26.2,57.3 22.3,55.1 21.8,55.9 25.7,58.1 "/>
<polygon id="XMLID_72_" class="st4" points="32.1,51.5 32.9,51 30.6,47.1 29.8,47.6 32.1,51.5 "/>
<path id="XMLID_71_" class="st5" d="M41.4,65.5c-0.6,0-1.1,0.5-1.1,1.1c0,0.2,0.1,0.4,0.2,0.6l-8.1,8.5l0.5,0.4l8.2-8.6
	c0.1,0,0.2,0.1,0.3,0.1c0.6,0,1.1-0.5,1.1-1.1C42.4,66,41.9,65.5,41.4,65.5L41.4,65.5z"/>
<path class="st6" d="M54.6,60.8l-0.2-0.5L43,65.6c-0.3-0.5-0.9-0.9-1.6-0.9c-0.4,0-0.7,0.1-1,0.3l-6.1-4.9l-0.8,1.1l6.1,4.9
	c-0.1,0.2-0.1,0.4-0.1,0.6c0,1.1,0.9,1.9,1.9,1.9c1.1,0,1.9-0.9,1.9-1.9c0-0.2,0-0.3-0.1-0.5L54.6,60.8L54.6,60.8z M41.4,67.7
	L41.4,67.7c-0.6,0-1.1-0.5-1.1-1.1c0-0.6,0.5-1.1,1.1-1.1c0.6,0,1.1,0.5,1.1,1.1C42.4,67.2,41.9,67.7,41.4,67.7L41.4,67.7z"/>
<path class="st7" d="M34.1,105.5h-0.5v-5.6c0-0.5,0-1,0.1-1.6c-0.1,0.1-0.1,0.1-0.2,0.2c-0.1,0-0.6,0.5-1.6,1.3l-0.3-0.4l2.1-1.5
	h0.4V105.5L34.1,105.5z M37.9,105.5h-0.5v-5.6c0-0.5,0-1,0.1-1.6c-0.1,0.1-0.1,0.1-0.2,0.2c-0.1,0-0.6,0.5-1.6,1.3l-0.3-0.4l2.1-1.5
	h0.4V105.5L37.9,105.5z M40.2,105.1c0-0.3,0.1-0.5,0.4-0.5c0.3,0,0.4,0.2,0.4,0.5c0,0.3-0.1,0.5-0.4,0.5
	C40.4,105.6,40.2,105.4,40.2,105.1L40.2,105.1z M40.2,100.4c0-0.3,0.1-0.5,0.4-0.5c0.3,0,0.4,0.2,0.4,0.5c0,0.2,0,0.3-0.1,0.4
	c-0.1,0.1-0.2,0.1-0.3,0.1c-0.1,0-0.2,0-0.3-0.1C40.3,100.7,40.2,100.6,40.2,100.4L40.2,100.4z M44.4,105.5h-0.5v-5.6
	c0-0.5,0-1,0.1-1.6c-0.1,0.1-0.1,0.1-0.2,0.2c-0.1,0-0.6,0.5-1.6,1.3l-0.3-0.4l2.1-1.5h0.4V105.5L44.4,105.5z M50.8,105.5h-4.8V105
	l2-2.1c0.6-0.6,1-1,1.2-1.4c0.2-0.3,0.4-0.6,0.5-0.9c0.1-0.3,0.2-0.6,0.2-0.9c0-0.5-0.1-0.8-0.4-1.1c-0.3-0.3-0.7-0.4-1.2-0.4
	c-0.6,0-1.2,0.2-1.8,0.7l-0.3-0.4c0.6-0.5,1.3-0.8,2.1-0.8c0.7,0,1.2,0.2,1.6,0.5c0.4,0.4,0.6,0.8,0.6,1.5c0,0.5-0.1,1-0.4,1.5
	c-0.3,0.5-0.7,1.1-1.4,1.7l-2,2v0h4.1V105.5L50.8,105.5z"/>
<path class="st7" d="M25.8,95.8c0,0.2-0.1,0.4-0.2,0.6c-0.1,0.1-0.3,0.2-0.5,0.2c-0.1,0-0.2,0-0.3-0.1c-0.1-0.1-0.2-0.2-0.2-0.3
	c-0.1-0.1-0.1-0.3-0.1-0.4c0-0.2,0.1-0.4,0.2-0.6c0.1-0.1,0.3-0.2,0.5-0.2c0.2,0,0.4,0.1,0.5,0.2C25.8,95.4,25.8,95.5,25.8,95.8
	L25.8,95.8z M24.6,95.8c0,0.2,0,0.4,0.1,0.5c0.1,0.1,0.2,0.2,0.4,0.2c0.2,0,0.3-0.1,0.4-0.2c0.1-0.1,0.1-0.3,0.1-0.5
	c0-0.2,0-0.4-0.1-0.5c-0.1-0.1-0.2-0.2-0.4-0.2c-0.2,0-0.3,0.1-0.4,0.2C24.7,95.4,24.6,95.6,24.6,95.8L24.6,95.8z M27.3,96.5v-1
	c0-0.1,0-0.3-0.1-0.3c-0.1-0.1-0.2-0.1-0.3-0.1c-0.2,0-0.3,0-0.4,0.1c-0.1,0.1-0.1,0.2-0.1,0.4v0.8h-0.1V95h0.1l0,0.2h0
	c0.1-0.2,0.3-0.2,0.5-0.2c0.3,0,0.5,0.2,0.5,0.5v1H27.3L27.3,96.5z M28.6,96.6c-0.2,0-0.4-0.1-0.5-0.2c-0.1-0.1-0.2-0.3-0.2-0.6
	c0-0.2,0.1-0.4,0.2-0.6c0.1-0.1,0.3-0.2,0.5-0.2c0.2,0,0.3,0.1,0.4,0.2c0.1,0.1,0.2,0.3,0.2,0.5v0.1H28c0,0.2,0,0.4,0.1,0.5
	c0.1,0.1,0.2,0.2,0.4,0.2c0.1,0,0.2,0,0.2,0c0.1,0,0.1,0,0.2-0.1v0.1c-0.1,0-0.2,0.1-0.2,0.1C28.7,96.5,28.7,96.6,28.6,96.6
	L28.6,96.6z M28.5,95.1c-0.1,0-0.3,0-0.3,0.1c-0.1,0.1-0.1,0.2-0.2,0.4H29c0-0.2,0-0.3-0.1-0.4C28.8,95.2,28.7,95.1,28.5,95.1
	L28.5,95.1z M31.3,96.5v-1c0-0.1,0-0.3-0.1-0.3c-0.1-0.1-0.2-0.1-0.3-0.1c-0.2,0-0.3,0-0.4,0.1c-0.1,0.1-0.1,0.2-0.1,0.4v0.8h-0.1
	V95h0.1l0,0.2h0c0.1-0.2,0.3-0.2,0.5-0.2c0.3,0,0.5,0.2,0.5,0.5v1H31.3L31.3,96.5z M32.6,96.6c-0.2,0-0.4-0.1-0.5-0.2
	c-0.1-0.1-0.2-0.3-0.2-0.6c0-0.2,0.1-0.4,0.2-0.6c0.1-0.1,0.3-0.2,0.5-0.2c0.2,0,0.3,0.1,0.4,0.2c0.1,0.1,0.2,0.3,0.2,0.5v0.1H32
	c0,0.2,0,0.4,0.1,0.5c0.1,0.1,0.2,0.2,0.4,0.2c0.1,0,0.2,0,0.2,0c0.1,0,0.1,0,0.2-0.1v0.1c-0.1,0-0.2,0.1-0.2,0.1
	C32.7,96.5,32.7,96.6,32.6,96.6L32.6,96.6z M32.5,95.1c-0.1,0-0.3,0-0.3,0.1c-0.1,0.1-0.1,0.2-0.2,0.4h0.9c0-0.2,0-0.3-0.1-0.4
	C32.8,95.2,32.7,95.1,32.5,95.1L32.5,95.1z M34.7,96.5l-0.3-1c0-0.1,0-0.2-0.1-0.3h0l0,0.1l-0.1,0.2l-0.3,1h-0.1L33.3,95h0.1
	l0.2,0.9c0.1,0.2,0.1,0.4,0.1,0.5h0c0.1-0.2,0.1-0.4,0.1-0.4l0.3-0.9h0.1l0.3,0.9c0.1,0.2,0.1,0.4,0.1,0.4h0c0-0.1,0-0.2,0.1-0.5
	l0.2-0.9h0.1l-0.4,1.5H34.7L34.7,96.5z M36.9,96.6c-0.2,0-0.4-0.1-0.5-0.2c-0.1-0.1-0.2-0.3-0.2-0.6c0-0.2,0.1-0.4,0.2-0.6
	c0.1-0.1,0.3-0.2,0.5-0.2c0.2,0,0.3,0.1,0.4,0.2c0.1,0.1,0.2,0.3,0.2,0.5v0.1h-1.1c0,0.2,0,0.4,0.1,0.5c0.1,0.1,0.2,0.2,0.4,0.2
	c0.1,0,0.2,0,0.2,0s0.1,0,0.2-0.1v0.1c-0.1,0-0.2,0.1-0.2,0.1C37,96.5,37,96.6,36.9,96.6L36.9,96.6z M36.8,95.1
	c-0.1,0-0.3,0-0.3,0.1c-0.1,0.1-0.1,0.2-0.2,0.4h0.9c0-0.2,0-0.3-0.1-0.4C37.1,95.2,37,95.1,36.8,95.1L36.8,95.1z M39.7,96.5v-1
	c0-0.1,0-0.3-0.1-0.3c-0.1-0.1-0.1-0.1-0.3-0.1c-0.2,0-0.3,0-0.3,0.1c-0.1,0.1-0.1,0.2-0.1,0.4v0.9h-0.1v-1c0-0.3-0.1-0.4-0.3-0.4
	c-0.2,0-0.3,0-0.3,0.1C38,95.4,38,95.5,38,95.7v0.8h-0.1V95H38l0,0.2h0c0-0.1,0.1-0.1,0.2-0.2c0.1,0,0.2-0.1,0.3-0.1
	c0.2,0,0.4,0.1,0.5,0.3h0c0-0.1,0.1-0.2,0.2-0.2c0.1,0,0.2-0.1,0.3-0.1c0.2,0,0.3,0,0.4,0.1c0.1,0.1,0.1,0.2,0.1,0.4v1H39.7
	L39.7,96.5z M41.3,96.5l0-0.2h0c-0.1,0.1-0.2,0.2-0.2,0.2c-0.1,0-0.2,0.1-0.3,0.1c-0.1,0-0.3,0-0.3-0.1c-0.1-0.1-0.1-0.2-0.1-0.3
	c0-0.1,0.1-0.3,0.2-0.3c0.1-0.1,0.3-0.1,0.5-0.1l0.3,0v-0.1c0-0.1,0-0.2-0.1-0.3c-0.1-0.1-0.2-0.1-0.3-0.1c-0.1,0-0.3,0-0.4,0.1
	l-0.1-0.1c0.2-0.1,0.3-0.1,0.5-0.1c0.2,0,0.3,0,0.4,0.1c0.1,0.1,0.1,0.2,0.1,0.4v1H41.3L41.3,96.5z M40.7,96.4c0.2,0,0.3,0,0.4-0.1
	c0.1-0.1,0.1-0.2,0.1-0.4v-0.1l-0.3,0c-0.2,0-0.4,0-0.4,0.1c-0.1,0.1-0.1,0.1-0.1,0.3c0,0.1,0,0.2,0.1,0.2
	C40.5,96.4,40.6,96.4,40.7,96.4L40.7,96.4z M42,96.5h-0.1V95H42V96.5L42,96.5z M41.9,94.6c0-0.1,0-0.1,0.1-0.1c0,0,0,0,0.1,0
	c0,0,0,0.1,0,0.1c0,0,0,0.1,0,0.1c0,0,0,0-0.1,0C41.9,94.8,41.9,94.7,41.9,94.6L41.9,94.6z M42.7,96.5h-0.1v-2.1h0.1V96.5L42.7,96.5
	z M45,96.5v-1c0-0.1,0-0.3-0.1-0.3c-0.1-0.1-0.2-0.1-0.3-0.1c-0.2,0-0.3,0-0.4,0.1c-0.1,0.1-0.1,0.2-0.1,0.4v0.8H44V95h0.1l0,0.2h0
	c0.1-0.2,0.3-0.2,0.5-0.2c0.3,0,0.5,0.2,0.5,0.5v1H45L45,96.5z M46.9,95.8c0,0.2-0.1,0.4-0.2,0.6c-0.1,0.1-0.3,0.2-0.5,0.2
	c-0.1,0-0.2,0-0.3-0.1c-0.1-0.1-0.2-0.2-0.2-0.3c-0.1-0.1-0.1-0.3-0.1-0.4c0-0.2,0.1-0.4,0.2-0.6c0.1-0.1,0.3-0.2,0.5-0.2
	c0.2,0,0.4,0.1,0.5,0.2C46.8,95.4,46.9,95.5,46.9,95.8L46.9,95.8z M45.7,95.8c0,0.2,0,0.4,0.1,0.5c0.1,0.1,0.2,0.2,0.4,0.2
	c0.2,0,0.3-0.1,0.4-0.2c0.1-0.1,0.1-0.3,0.1-0.5c0-0.2,0-0.4-0.1-0.5c-0.1-0.1-0.2-0.2-0.4-0.2c-0.2,0-0.3,0.1-0.4,0.2
	C45.8,95.4,45.7,95.6,45.7,95.8L45.7,95.8z M47.7,96.4c0.1,0,0.2,0,0.2,0v0.1c-0.1,0-0.1,0-0.2,0c-0.1,0-0.2,0-0.3-0.1
	c-0.1-0.1-0.1-0.2-0.1-0.3v-1h-0.2v-0.1l0.2-0.1l0.1-0.3h0.1V95h0.4v0.1h-0.4v0.9c0,0.1,0,0.2,0.1,0.3
	C47.6,96.4,47.7,96.4,47.7,96.4L47.7,96.4z M48.5,96.5h-0.1V95h0.1V96.5L48.5,96.5z M48.3,94.6c0-0.1,0-0.1,0.1-0.1c0,0,0,0,0.1,0
	c0,0,0,0.1,0,0.1c0,0,0,0.1,0,0.1c0,0,0,0-0.1,0C48.3,94.8,48.3,94.7,48.3,94.6L48.3,94.6z M49.5,95.2h-0.4v1.4h-0.1v-1.4h-0.3v-0.1
	l0.3-0.1v-0.1c0-0.2,0-0.3,0.1-0.4c0.1-0.1,0.2-0.1,0.3-0.1c0.1,0,0.2,0,0.2,0l0,0.1c-0.1,0-0.1,0-0.2,0c-0.1,0-0.2,0-0.2,0.1
	c0,0.1-0.1,0.2-0.1,0.3V95h0.4V95.2L49.5,95.2z M50,96.5h-0.1V95H50V96.5L50,96.5z M49.8,94.6c0-0.1,0-0.1,0.1-0.1c0,0,0,0,0.1,0
	c0,0,0,0.1,0,0.1c0,0,0,0.1,0,0.1c0,0,0,0-0.1,0C49.8,94.8,49.8,94.7,49.8,94.6L49.8,94.6z M51.1,96.6c-0.2,0-0.4-0.1-0.5-0.2
	c-0.1-0.1-0.2-0.3-0.2-0.6c0-0.2,0.1-0.4,0.2-0.6c0.1-0.1,0.3-0.2,0.5-0.2c0.1,0,0.3,0,0.4,0.1l0,0.1c-0.1,0-0.2-0.1-0.3-0.1
	c-0.2,0-0.3,0.1-0.4,0.2c-0.1,0.1-0.1,0.3-0.1,0.5c0,0.2,0,0.4,0.1,0.5c0.1,0.1,0.2,0.2,0.4,0.2c0.1,0,0.3,0,0.4-0.1v0.1
	C51.4,96.5,51.3,96.6,51.1,96.6L51.1,96.6z M52.8,96.5l0-0.2h0c-0.1,0.1-0.2,0.2-0.2,0.2c-0.1,0-0.2,0.1-0.3,0.1
	c-0.1,0-0.3,0-0.3-0.1c-0.1-0.1-0.1-0.2-0.1-0.3c0-0.1,0.1-0.3,0.2-0.3c0.1-0.1,0.3-0.1,0.5-0.1l0.3,0v-0.1c0-0.1,0-0.2-0.1-0.3
	c-0.1-0.1-0.2-0.1-0.3-0.1c-0.1,0-0.3,0-0.4,0.1l-0.1-0.1c0.2-0.1,0.3-0.1,0.5-0.1c0.2,0,0.3,0,0.4,0.1c0.1,0.1,0.1,0.2,0.1,0.4v1
	H52.8L52.8,96.5z M52.2,96.4c0.2,0,0.3,0,0.4-0.1c0.1-0.1,0.1-0.2,0.1-0.4v-0.1l-0.3,0c-0.2,0-0.4,0-0.4,0.1
	c-0.1,0.1-0.1,0.1-0.1,0.3c0,0.1,0,0.2,0.1,0.2C52,96.4,52.1,96.4,52.2,96.4L52.2,96.4z M53.8,96.4c0.1,0,0.2,0,0.2,0v0.1
	c-0.1,0-0.1,0-0.2,0c-0.1,0-0.2,0-0.3-0.1c-0.1-0.1-0.1-0.2-0.1-0.3v-1h-0.2v-0.1l0.2-0.1l0.1-0.3h0.1V95H54v0.1h-0.4v0.9
	c0,0.1,0,0.2,0.1,0.3C53.6,96.4,53.7,96.4,53.8,96.4L53.8,96.4z M54.5,96.5h-0.1V95h0.1V96.5L54.5,96.5z M54.4,94.6
	c0-0.1,0-0.1,0.1-0.1c0,0,0,0,0.1,0c0,0,0,0.1,0,0.1c0,0,0,0.1,0,0.1c0,0,0,0-0.1,0C54.4,94.8,54.4,94.7,54.4,94.6L54.4,94.6z
	 M56.3,95.8c0,0.2-0.1,0.4-0.2,0.6c-0.1,0.1-0.3,0.2-0.5,0.2c-0.1,0-0.2,0-0.3-0.1c-0.1-0.1-0.2-0.2-0.2-0.3
	C55,96.1,55,95.9,55,95.8c0-0.2,0.1-0.4,0.2-0.6c0.1-0.1,0.3-0.2,0.5-0.2c0.2,0,0.4,0.1,0.5,0.2C56.2,95.4,56.3,95.5,56.3,95.8
	L56.3,95.8z M55.1,95.8c0,0.2,0,0.4,0.1,0.5c0.1,0.1,0.2,0.2,0.4,0.2c0.2,0,0.3-0.1,0.4-0.2c0.1-0.1,0.1-0.3,0.1-0.5
	c0-0.2,0-0.4-0.1-0.5c-0.1-0.1-0.2-0.2-0.4-0.2c-0.2,0-0.3,0.1-0.4,0.2C55.2,95.4,55.1,95.6,55.1,95.8L55.1,95.8z M57.8,96.5v-1
	c0-0.1,0-0.3-0.1-0.3c-0.1-0.1-0.2-0.1-0.3-0.1c-0.2,0-0.3,0-0.4,0.1c-0.1,0.1-0.1,0.2-0.1,0.4v0.8h-0.1V95h0.1l0,0.2h0
	c0.1-0.2,0.3-0.2,0.5-0.2c0.3,0,0.5,0.2,0.5,0.5v1H57.8L57.8,96.5z"/>
<path class="st7" d="M35.3,55.7c0,0.2-0.1,0.3-0.2,0.4c-0.1,0.1-0.3,0.1-0.5,0.1c-0.2,0-0.4,0-0.5-0.1v-0.2c0.1,0,0.2,0.1,0.3,0.1
	c0.1,0,0.2,0,0.3,0c0.2,0,0.3,0,0.3-0.1c0.1-0.1,0.1-0.1,0.1-0.2c0-0.1,0-0.1,0-0.2c0,0-0.1-0.1-0.1-0.1c-0.1,0-0.2-0.1-0.3-0.1
	c-0.2-0.1-0.3-0.1-0.4-0.2c-0.1-0.1-0.1-0.2-0.1-0.4c0-0.2,0.1-0.3,0.2-0.4c0.1-0.1,0.3-0.1,0.5-0.1c0.2,0,0.4,0,0.5,0.1l-0.1,0.2
	c-0.2-0.1-0.3-0.1-0.5-0.1c-0.1,0-0.2,0-0.3,0.1c-0.1,0.1-0.1,0.1-0.1,0.2c0,0.1,0,0.1,0,0.2c0,0,0.1,0.1,0.1,0.1
	c0.1,0,0.2,0.1,0.3,0.1c0.2,0.1,0.4,0.2,0.4,0.2C35.2,55.4,35.3,55.5,35.3,55.7L35.3,55.7z M37.2,54.2v1.3c0,0.2-0.1,0.4-0.2,0.5
	c-0.1,0.1-0.3,0.2-0.6,0.2c-0.2,0-0.4-0.1-0.6-0.2c-0.1-0.1-0.2-0.3-0.2-0.5v-1.3h0.2v1.3c0,0.2,0,0.3,0.1,0.4
	c0.1,0.1,0.2,0.1,0.4,0.1c0.2,0,0.3,0,0.4-0.1c0.1-0.1,0.1-0.2,0.1-0.4v-1.3H37.2L37.2,54.2z M39.3,56.2h-0.3L38,54.5h0
	c0,0.2,0,0.4,0,0.5v1.1h-0.2v-2H38l1.1,1.7h0c0,0,0-0.1,0-0.2c0-0.1,0-0.2,0-0.3v-1.1h0.2V56.2L39.3,56.2z M41.3,56.2h-0.1v-1.5
	c0-0.1,0-0.3,0-0.4c0,0,0,0,0,0c0,0-0.2,0.1-0.4,0.3l-0.1-0.1l0.5-0.4h0.1V56.2L41.3,56.2z M43.4,56.2h-1.3v-0.1l0.5-0.6
	c0.2-0.2,0.3-0.3,0.3-0.4c0.1-0.1,0.1-0.2,0.1-0.2c0-0.1,0-0.2,0-0.2c0-0.1,0-0.2-0.1-0.3c-0.1-0.1-0.2-0.1-0.3-0.1
	c-0.2,0-0.3,0.1-0.5,0.2l-0.1-0.1c0.2-0.1,0.4-0.2,0.6-0.2c0.2,0,0.3,0,0.4,0.1c0.1,0.1,0.1,0.2,0.1,0.4c0,0.1,0,0.3-0.1,0.4
	c-0.1,0.1-0.2,0.3-0.4,0.5l-0.5,0.5v0h1.1V56.2L43.4,56.2z M44.4,56.7c-0.1,0-0.2,0-0.2,0v-0.1c0.1,0,0.1,0,0.2,0
	c0.2,0,0.3-0.1,0.3-0.4v-2h0.1v2C44.8,56.5,44.7,56.7,44.4,56.7L44.4,56.7z M46.4,55.5h-0.8l-0.3,0.7h-0.2l0.8-2H46l0.8,2h-0.2
	L46.4,55.5L46.4,55.5z M45.6,55.4h0.7l-0.3-0.7c0-0.1,0-0.1-0.1-0.2c0,0.1-0.1,0.2-0.1,0.2L45.6,55.4L45.6,55.4z M48.6,56.2h-0.1
	l-1.2-1.8h0c0,0.2,0,0.4,0,0.5v1.3h-0.1v-2h0.1l1.2,1.8h0c0-0.2,0-0.3,0-0.5v-1.3h0.1V56.2L48.6,56.2z"/>
<path class="st7" d="M42.9,81.1c-0.1,0-0.2,0-0.3-0.1c-0.1-0.1-0.1-0.2-0.1-0.3V80c0-0.1,0-0.3,0.1-0.3c0.1-0.1,0.2-0.1,0.3-0.1
	c0.1,0,0.2,0,0.3,0.1c0.1,0.1,0.1,0.2,0.1,0.3v0.6c0,0.1,0,0.3-0.1,0.3C43.2,81.1,43.1,81.1,42.9,81.1L42.9,81.1z M42.9,80.9
	L42.9,80.9c0.1,0,0.1,0,0.2-0.1c0,0,0.1-0.1,0.1-0.2V80c0-0.1,0-0.1-0.1-0.2c0,0-0.1-0.1-0.2-0.1c-0.1,0-0.1,0-0.2,0.1
	c0,0-0.1,0.1-0.1,0.2v0.6c0,0.1,0,0.1,0.1,0.2C42.8,80.9,42.9,80.9,42.9,80.9L42.9,80.9z"/>
<path class="st7" d="M41.1,83.2h-1.9v-0.3l0.7-0.8c0.2-0.2,0.4-0.4,0.5-0.5c0.1-0.1,0.1-0.2,0.2-0.3c0-0.1,0.1-0.2,0.1-0.3
	c0-0.2,0-0.3-0.1-0.4c-0.1-0.1-0.2-0.1-0.4-0.1c-0.1,0-0.2,0-0.3,0.1c-0.1,0-0.2,0.1-0.4,0.2l-0.2-0.2c0.3-0.2,0.5-0.3,0.9-0.3
	c0.3,0,0.5,0.1,0.6,0.2c0.2,0.1,0.2,0.3,0.2,0.6c0,0.2-0.1,0.4-0.2,0.5c-0.1,0.2-0.3,0.4-0.6,0.7l-0.6,0.6v0h1.5V83.2L41.1,83.2z
	 M42.2,83.2h-0.3v-2c0-0.2,0-0.3,0-0.5c0,0-0.1,0.1-0.1,0.1c0,0-0.2,0.2-0.5,0.4l-0.2-0.2l0.8-0.6h0.3V83.2L42.2,83.2z"/>
<path id="XMLID_14_" class="st3" d="M42.4,66.6c0-0.6-0.5-1.1-1.1-1.1c-0.6,0-1.1,0.5-1.1,1.1c0,0.2,0.1,0.4,0.2,0.6
	c0.1,0.2,0.3,0.3,0.5,0.4c0.1,0,0.2,0.1,0.3,0.1C41.9,67.7,42.4,67.2,42.4,66.6L42.4,66.6z"/>
</svg>
