<?xml version="1.0" encoding="utf-8"?>
<!-- Generator: Adobe Illustrator 19.0.0, SVG Export Plug-In . SVG Version: 6.00 Build 0)  -->
<svg version="1.1" id="Layer_1" xmlns="http://www.w3.org/2000/svg" xmlns:xlink="http://www.w3.org/1999/xlink" x="0px" y="0px"
	 viewBox="0 0 174.6 317.1" style="enable-background:new 0 0 174.6 317.1;" xml:space="preserve">
<style type="text/css">
	.st0{fill-rule:evenodd;clip-rule:evenodd;fill:#4C4D4D;}
	.st1{fill-rule:evenodd;clip-rule:evenodd;fill:#FA7E80;}
	.st2{fill-rule:evenodd;clip-rule:evenodd;fill:#6E6E6C;}
	.st3{fill-rule:evenodd;clip-rule:evenodd;}
	.st4{fill:#FA7E80;}
	.st5{fill-rule:evenodd;clip-rule:evenodd;fill:#FFFFFF;}
	.st6{fill:#FFFFFF;}
</style>
<path class="st0" d="M169.1,130.8L169.1,130.8c3.1,0,5.5-2.5,5.5-5.5v-14.6c0-3.1-2.5-5.5-5.5-5.5l0,0c-3.1,0-5.5,2.5-5.5,5.5v14.6
	C163.5,128.3,166,130.8,169.1,130.8L169.1,130.8z"/>
<path class="st0" d="M169.1,176.9L169.1,176.9c2.1,0,3.8-1.7,3.8-3.8v-30.3c0-2.1-1.7-3.8-3.8-3.8l0,0c-2.1,0-3.8,1.7-3.8,3.8v30.3
	C165.2,175.2,167,176.9,169.1,176.9L169.1,176.9z"/>
<path class="st0" d="M3.8,192.7L3.8,192.7c2.1,0,3.8-1.7,3.8-3.8v-60.6c0-2.1-1.7-3.8-3.8-3.8l0,0c-2.1,0-3.8,1.7-3.8,3.8v60.6
	C0,190.9,1.7,192.7,3.8,192.7L3.8,192.7z"/>
<path class="st1" d="M154.6,253.9c-1.3,0.8-2.4,1.7-3.5,2.6c-10.3,12-10.6,25.3-11.4,36.2c-0.2,3.7-0.5,7.2-1.6,10.3
	c-1.8,6.2-5.8,10.6-15.8,12c-0.7,0.1-1.3,0.2-2,0.2c-1.1,0.2-2.2,0.3-3.4,0.4c-19,2-40.2,2-59.2,0c-1.2-0.1-2.3-0.2-3.4-0.4
	c-0.7-0.1-1.3-0.2-2-0.2c-10-1.3-13.9-5.8-15.8-12c-1-3.1-1.4-6.6-1.6-10.3c-0.9-10.9-1.1-24.2-11.4-36.2c-1.1-0.9-2.2-1.8-3.5-2.6
	c-2.6-1.7-5.2-4.1-7.6-7c-4.1-3.2-6-8.3-7.3-13.9c-0.3-1.3-0.4-2.6-0.4-3.8V228v-1.4v-2.4c0-46.5,0-92.9,0-139.4
	c0-7.6,5.7-15.2,11.9-19.2c0.2-0.1,0.4-0.2,0.6-0.4c0.1-0.1,0.3-0.2,0.4-0.3c2.3-1.6,4.2-3.4,5.9-5.2c7.9-8.9,11-22,12-34.1
	c0.1-1.9,0.2-3.8,0.3-5.6c0-0.6,0-1.1,0-1.6c0-10.9,5.1-16,15.3-16.6c0.9-0.1,1.9-0.2,2.8-0.2c21.7-2,44.7-2,66.4,0
	c0.9,0.1,1.9,0.2,2.8,0.2c10.2,0.6,15.3,5.8,15.3,16.6c0,0.5,0,1.1,0,1.6c0.1,1.9,0.2,3.8,0.3,5.6c1.2,14.9,5.3,30.2,18,39.3
	c0.2,0.1,0.3,0.2,0.4,0.3c0.2,0.1,0.4,0.2,0.6,0.4c6.2,4,11.9,11.6,11.9,19.2c0,46.5,0,92.9,0,139.4v2.4v1.4v1.1
	c0,1.2-0.2,2.5-0.4,3.8C168.2,241.9,161.9,249,154.6,253.9L154.6,253.9z"/>
<path class="st2" d="M154.6,253.9c-4.3,2.9-9.6,3.1-14.7,3.1H35.1c-5.3,0-9.9-0.7-13.8-2.2c-0.4-0.3-0.9-0.6-1.3-0.9
	c-7.3-4.9-13.6-12-14.8-20.9c-0.3-1.3-0.4-2.6-0.4-3.8V228v-1.4v-2.4c0-46.5,0-92.9,0-139.4c0-7.6,5.7-15.2,11.9-19.2
	c0.2-0.1,0.4-0.2,0.6-0.4c0.1-0.1,0.3-0.2,0.4-0.3c5.9-4.3,10.7-4.7,18.1-4.7h103.7c7.9,0,11.3,0.3,17.4,4.7
	c0.2,0.1,0.3,0.2,0.4,0.3c0.2,0.1,0.4,0.2,0.6,0.4c6.2,4,11.9,11.6,11.9,19.2c0,46.5,0,92.9,0,139.4v2.4v1.4v1.1
	c0,1.2-0.2,2.5-0.4,3.8C168.2,241.9,161.9,249,154.6,253.9L154.6,253.9z"/>
<path class="st3" d="M23.3,250.9c3.8,1.3,7.8,1.7,11.8,1.7h104.8c4.1,0,8.8,0,12.3-2.4c6.2-4.1,11.9-10.2,13-17.9l0-0.2l0-0.2
	c0.2-0.9,0.3-1.9,0.3-2.9v-4.9c0-46.5,0-92.9,0-139.4c0-6.1-5-12.4-9.9-15.6c-0.2-0.1-0.4-0.3-0.6-0.4l-0.1-0.1l-0.1-0.1
	c-0.1-0.1-0.3-0.2-0.4-0.3c-5.3-3.8-8.3-3.9-14.9-3.9H35.8c-6.3,0-10.5,0.3-15.6,3.9c-0.1,0.1-0.3,0.2-0.4,0.3l-0.1,0.1l-0.1,0.1
	c-0.2,0.1-0.4,0.3-0.6,0.4c-4.9,3.2-9.9,9.5-9.9,15.6c0,46.5,0,92.9,0,139.4v4.9c0,1,0.1,2,0.3,2.9l0,0.2l0,0.2
	c1.1,7.5,6.8,13.8,13,17.9C22.7,250.5,23,250.7,23.3,250.9L23.3,250.9z"/>
<path class="st4" d="M86.5,103.4h1.9v-9.5h-1.9V103.4L86.5,103.4z M67.8,108.8l1.7-1l-4.7-8.2l-1.7,1L67.8,108.8L67.8,108.8z
	 M54.3,122.8l1-1.7l-8.2-4.7l-1,1.7L54.3,122.8L54.3,122.8z M49.7,141.8v-1.9h-9.5v1.9H49.7L49.7,141.8z M55.1,160.5l-1-1.7
	l-8.2,4.7l1,1.7L55.1,160.5L55.1,160.5z M69.2,173.9l-1.7-1l-4.7,8.2l1.7,1L69.2,173.9L69.2,173.9z M88.1,178.6h-1.9v9.5h1.9V178.6
	L88.1,178.6z M106.8,173.2l-1.7,1l4.7,8.2l1.7-1L106.8,173.2L106.8,173.2z M120.3,159.1l-1,1.7l8.2,4.7l1-1.7L120.3,159.1
	L120.3,159.1z M124.9,140.2v1.9h9.5v-1.9H124.9L124.9,140.2z M119.5,121.5l1,1.7l8.2-4.7l-1-1.7L119.5,121.5L119.5,121.5z
	 M105.4,108l1.7,1l4.7-8.2l-1.7-1L105.4,108L105.4,108z"/>
<path class="st1" d="M87.4,138.6c-1.2,0-2.2,1-2.2,2.2c0,0.5,0.2,0.9,0.4,1.3l-17.2,18l1.1,0.9l17.2-18.1c0.2,0.1,0.5,0.1,0.7,0.1
	c1.2,0,2.2-1,2.2-2.2C89.7,139.6,88.7,138.6,87.4,138.6L87.4,138.6z"/>
<path class="st5" d="M115.4,128.6l-0.5-1.1l-24,11.2c-0.7-1.2-2-1.9-3.5-1.9c-0.8,0-1.5,0.2-2.1,0.6l-12.9-10.3l-1.8,2.2l12.9,10.3
	c-0.1,0.4-0.2,0.8-0.2,1.2c0,2.2,1.8,4.1,4.1,4.1c2.2,0,4.1-1.8,4.1-4.1c0-0.4-0.1-0.7-0.1-1.1L115.4,128.6L115.4,128.6z M87.4,143
	L87.4,143c-1.2,0-2.2-1-2.2-2.2c0-1.2,1-2.2,2.2-2.2c1.2,0,2.2,1,2.2,2.2C89.7,142,88.7,143,87.4,143L87.4,143z"/>
<path class="st6" d="M72.1,230.5H71v-11.7c0-1.1,0-2.2,0.1-3.3c-0.1,0.1-0.2,0.2-0.3,0.3c-0.1,0.1-1.3,1-3.4,2.7l-0.6-0.8l4.4-3.3h1
	V230.5L72.1,230.5z M80.1,230.5H79v-11.7c0-1.1,0-2.2,0.1-3.3c-0.1,0.1-0.2,0.2-0.3,0.3c-0.1,0.1-1.3,1-3.4,2.7l-0.6-0.8l4.4-3.3
	h0.9V230.5L80.1,230.5z M85,229.6c0-0.7,0.3-1.1,0.9-1.1c0.6,0,0.9,0.4,0.9,1.1c0,0.7-0.3,1.1-0.9,1.1C85.3,230.7,85,230.3,85,229.6
	L85,229.6z M85,219.8c0-0.7,0.3-1.1,0.9-1.1c0.6,0,0.9,0.4,0.9,1.1c0,0.4-0.1,0.7-0.3,0.8c-0.2,0.2-0.4,0.3-0.6,0.3
	c-0.2,0-0.5-0.1-0.6-0.3C85.1,220.4,85,220.2,85,219.8L85,219.8z M93.9,230.5h-1.1v-11.7c0-1.1,0-2.2,0.1-3.3
	c-0.1,0.1-0.2,0.2-0.3,0.3c-0.1,0.1-1.3,1-3.4,2.7l-0.6-0.8l4.4-3.3h0.9V230.5L93.9,230.5z M107.5,230.5H97.4v-1l4.3-4.5
	c1.2-1.3,2.1-2.2,2.5-2.9c0.5-0.7,0.8-1.3,1.1-1.9c0.2-0.6,0.3-1.2,0.3-1.9c0-1-0.3-1.7-0.9-2.3c-0.6-0.6-1.4-0.9-2.5-0.9
	c-1.3,0-2.6,0.5-3.9,1.5l-0.6-0.8c1.3-1.1,2.8-1.7,4.5-1.7c1.4,0,2.5,0.4,3.3,1.1c0.8,0.7,1.2,1.8,1.2,3.1c0,1.1-0.3,2.1-0.8,3.1
	c-0.5,1-1.5,2.2-3,3.7l-4.1,4.2v0h8.6V230.5L107.5,230.5z"/>
<path class="st6" d="M54.6,202.5c0,0.5-0.1,0.9-0.4,1.2c-0.2,0.3-0.6,0.4-1,0.4c-0.3,0-0.5-0.1-0.7-0.2c-0.2-0.1-0.4-0.3-0.5-0.6
	c-0.1-0.2-0.2-0.5-0.2-0.9c0-0.5,0.1-0.9,0.4-1.2c0.2-0.3,0.6-0.4,1-0.4c0.4,0,0.8,0.1,1,0.4C54.5,201.6,54.6,202,54.6,202.5
	L54.6,202.5z M52.1,202.5c0,0.4,0.1,0.8,0.3,1c0.2,0.2,0.5,0.4,0.8,0.4c0.3,0,0.6-0.1,0.8-0.4c0.2-0.2,0.3-0.6,0.3-1
	c0-0.4-0.1-0.8-0.3-1c-0.2-0.2-0.5-0.4-0.8-0.4c-0.3,0-0.6,0.1-0.8,0.4C52.2,201.7,52.1,202.1,52.1,202.5L52.1,202.5z M57.7,204.1
	v-2c0-0.3-0.1-0.5-0.2-0.7c-0.1-0.1-0.3-0.2-0.6-0.2c-0.4,0-0.7,0.1-0.8,0.3c-0.2,0.2-0.3,0.5-0.3,0.9v1.7h-0.3v-3.1h0.2l0.1,0.4h0
	c0.2-0.3,0.6-0.5,1.1-0.5c0.7,0,1.1,0.4,1.1,1.1v2.1H57.7L57.7,204.1z M60.4,204.1c-0.5,0-0.8-0.1-1.1-0.4c-0.3-0.3-0.4-0.7-0.4-1.2
	c0-0.5,0.1-0.9,0.4-1.2c0.2-0.3,0.6-0.5,1-0.5c0.4,0,0.7,0.1,0.9,0.4c0.2,0.3,0.3,0.6,0.3,1v0.2h-2.3c0,0.4,0.1,0.8,0.3,1
	c0.2,0.2,0.5,0.3,0.8,0.3c0.2,0,0.3,0,0.5,0c0.1,0,0.3-0.1,0.5-0.2v0.3c-0.2,0.1-0.3,0.1-0.5,0.2C60.7,204.1,60.6,204.1,60.4,204.1
	L60.4,204.1z M60.3,201.1c-0.3,0-0.5,0.1-0.7,0.3c-0.2,0.2-0.3,0.5-0.3,0.9h1.9c0-0.4-0.1-0.7-0.2-0.9
	C60.8,201.2,60.6,201.1,60.3,201.1L60.3,201.1z M66.2,204.1v-2c0-0.3-0.1-0.5-0.2-0.7c-0.1-0.1-0.3-0.2-0.6-0.2
	c-0.4,0-0.7,0.1-0.8,0.3c-0.2,0.2-0.3,0.5-0.3,0.9v1.7H64v-3.1h0.2l0.1,0.4h0c0.2-0.3,0.6-0.5,1.1-0.5c0.7,0,1.1,0.4,1.1,1.1v2.1
	H66.2L66.2,204.1z M68.9,204.1c-0.5,0-0.8-0.1-1.1-0.4c-0.3-0.3-0.4-0.7-0.4-1.2c0-0.5,0.1-0.9,0.4-1.2c0.2-0.3,0.6-0.5,1-0.5
	c0.4,0,0.7,0.1,0.9,0.4c0.2,0.3,0.3,0.6,0.3,1v0.2h-2.3c0,0.4,0.1,0.8,0.3,1c0.2,0.2,0.5,0.3,0.8,0.3c0.2,0,0.3,0,0.5,0
	c0.1,0,0.3-0.1,0.5-0.2v0.3c-0.2,0.1-0.3,0.1-0.5,0.2C69.2,204.1,69,204.1,68.9,204.1L68.9,204.1z M68.8,201.1
	c-0.3,0-0.5,0.1-0.7,0.3c-0.2,0.2-0.3,0.5-0.3,0.9h1.9c0-0.4-0.1-0.7-0.2-0.9C69.3,201.2,69,201.1,68.8,201.1L68.8,201.1z
	 M73.3,204.1l-0.7-2.1c0-0.1-0.1-0.4-0.2-0.6h0l-0.1,0.2l-0.1,0.4l-0.7,2.1h-0.3l-0.9-3.1h0.3l0.5,1.8c0.1,0.5,0.2,0.8,0.2,1h0
	c0.1-0.5,0.2-0.8,0.2-0.9l0.6-1.9h0.3l0.6,1.9c0.1,0.5,0.2,0.8,0.3,0.9h0c0-0.1,0.1-0.5,0.2-1l0.5-1.8h0.3l-0.9,3.1H73.3L73.3,204.1
	z M78,204.1c-0.5,0-0.8-0.1-1.1-0.4c-0.3-0.3-0.4-0.7-0.4-1.2c0-0.5,0.1-0.9,0.4-1.2c0.2-0.3,0.6-0.5,1-0.5c0.4,0,0.7,0.1,0.9,0.4
	c0.2,0.3,0.3,0.6,0.3,1v0.2h-2.3c0,0.4,0.1,0.8,0.3,1c0.2,0.2,0.5,0.3,0.8,0.3c0.2,0,0.3,0,0.5,0c0.1,0,0.3-0.1,0.5-0.2v0.3
	c-0.2,0.1-0.3,0.1-0.5,0.2C78.3,204.1,78.2,204.1,78,204.1L78,204.1z M77.9,201.1c-0.3,0-0.5,0.1-0.7,0.3c-0.2,0.2-0.3,0.5-0.3,0.9
	h1.9c0-0.4-0.1-0.7-0.2-0.9C78.4,201.2,78.2,201.1,77.9,201.1L77.9,201.1z M84,204.1V202c0-0.3-0.1-0.5-0.2-0.7
	c-0.1-0.1-0.3-0.2-0.6-0.2c-0.3,0-0.6,0.1-0.7,0.3c-0.2,0.2-0.2,0.5-0.2,0.8v1.8H82v-2.1c0-0.5-0.2-0.8-0.7-0.8
	c-0.3,0-0.6,0.1-0.7,0.3c-0.2,0.2-0.2,0.5-0.2,0.9v1.7H80v-3.1h0.2l0.1,0.4h0c0.1-0.2,0.2-0.3,0.4-0.4c0.2-0.1,0.3-0.1,0.5-0.1
	c0.5,0,0.8,0.2,1,0.6h0c0.1-0.2,0.2-0.3,0.4-0.4c0.2-0.1,0.4-0.1,0.6-0.1c0.3,0,0.6,0.1,0.8,0.3c0.2,0.2,0.3,0.5,0.3,0.9v2.1H84
	L84,204.1z M87.3,204.1l-0.1-0.5h0c-0.2,0.2-0.3,0.3-0.5,0.4c-0.2,0.1-0.4,0.1-0.6,0.1c-0.3,0-0.6-0.1-0.7-0.2
	c-0.2-0.2-0.3-0.4-0.3-0.7c0-0.3,0.1-0.5,0.4-0.7c0.3-0.2,0.6-0.3,1.1-0.3l0.6,0V202c0-0.3-0.1-0.5-0.2-0.7
	c-0.1-0.2-0.3-0.2-0.6-0.2c-0.3,0-0.6,0.1-0.9,0.2l-0.1-0.2c0.3-0.2,0.7-0.2,1-0.2c0.3,0,0.6,0.1,0.8,0.3c0.2,0.2,0.3,0.5,0.3,0.8
	v2.1H87.3L87.3,204.1z M86.1,203.9c0.3,0,0.6-0.1,0.8-0.3c0.2-0.2,0.3-0.5,0.3-0.8v-0.3l-0.6,0c-0.4,0-0.8,0.1-0.9,0.2
	c-0.2,0.1-0.3,0.3-0.3,0.5c0,0.2,0.1,0.3,0.2,0.5C85.7,203.8,85.9,203.9,86.1,203.9L86.1,203.9z M88.9,204.1h-0.3v-3.1h0.3V204.1
	L88.9,204.1z M88.5,200.1c0-0.2,0.1-0.3,0.2-0.3c0.1,0,0.1,0,0.1,0.1c0,0,0.1,0.1,0.1,0.2c0,0.1,0,0.2-0.1,0.2
	c0,0.1-0.1,0.1-0.1,0.1C88.6,200.3,88.5,200.3,88.5,200.1L88.5,200.1z M90.3,204.1H90v-4.5h0.3V204.1L90.3,204.1z M95.2,204.1v-2
	c0-0.3-0.1-0.5-0.2-0.7c-0.1-0.1-0.3-0.2-0.6-0.2c-0.4,0-0.7,0.1-0.8,0.3c-0.2,0.2-0.3,0.5-0.3,0.9v1.7H93v-3.1h0.2l0.1,0.4h0
	c0.2-0.3,0.6-0.5,1.1-0.5c0.7,0,1.1,0.4,1.1,1.1v2.1H95.2L95.2,204.1z M99.1,202.5c0,0.5-0.1,0.9-0.4,1.2c-0.2,0.3-0.6,0.4-1,0.4
	c-0.3,0-0.5-0.1-0.7-0.2c-0.2-0.1-0.4-0.3-0.5-0.6c-0.1-0.2-0.2-0.5-0.2-0.9c0-0.5,0.1-0.9,0.4-1.2c0.2-0.3,0.6-0.4,1-0.4
	c0.4,0,0.8,0.1,1,0.4C99,201.6,99.1,202,99.1,202.5L99.1,202.5z M96.7,202.5c0,0.4,0.1,0.8,0.3,1c0.2,0.2,0.5,0.4,0.8,0.4
	c0.3,0,0.6-0.1,0.8-0.4c0.2-0.2,0.3-0.6,0.3-1c0-0.4-0.1-0.8-0.3-1c-0.2-0.2-0.5-0.4-0.8-0.4c-0.3,0-0.6,0.1-0.8,0.4
	C96.8,201.7,96.7,202.1,96.7,202.5L96.7,202.5z M100.9,203.9c0.2,0,0.3,0,0.5,0v0.2c-0.1,0-0.3,0.1-0.5,0.1c-0.3,0-0.5-0.1-0.6-0.2
	c-0.1-0.1-0.2-0.4-0.2-0.7v-2h-0.5V201l0.5-0.1l0.1-0.7h0.1v0.8h0.9v0.2h-0.9v2c0,0.2,0,0.4,0.1,0.5
	C100.6,203.8,100.7,203.9,100.9,203.9L100.9,203.9z M102.4,204.1h-0.3v-3.1h0.3V204.1L102.4,204.1z M102.1,200.1
	c0-0.2,0.1-0.3,0.2-0.3c0.1,0,0.1,0,0.1,0.1c0,0,0,0.1,0,0.2c0,0.1,0,0.2,0,0.2c0,0.1-0.1,0.1-0.1,0.1
	C102.2,200.3,102.1,200.3,102.1,200.1L102.1,200.1z M104.8,201.2H104v2.9h-0.3v-2.9h-0.6V201l0.6-0.1v-0.2c0-0.4,0.1-0.7,0.2-0.8
	c0.1-0.2,0.4-0.3,0.7-0.3c0.2,0,0.3,0,0.5,0.1l-0.1,0.2c-0.2,0-0.3-0.1-0.5-0.1c-0.2,0-0.4,0.1-0.5,0.2c-0.1,0.1-0.1,0.3-0.1,0.6
	v0.3h0.7V201.2L104.8,201.2z M105.6,204.1h-0.3v-3.1h0.3V204.1L105.6,204.1z M105.3,200.1c0-0.2,0.1-0.3,0.2-0.3
	c0.1,0,0.1,0,0.1,0.1c0,0,0.1,0.1,0.1,0.2c0,0.1,0,0.2-0.1,0.2c0,0.1-0.1,0.1-0.1,0.1C105.4,200.3,105.3,200.3,105.3,200.1
	L105.3,200.1z M108,204.1c-0.4,0-0.8-0.1-1.1-0.4c-0.3-0.3-0.4-0.7-0.4-1.2c0-0.5,0.1-0.9,0.4-1.2c0.3-0.3,0.6-0.4,1.1-0.4
	c0.3,0,0.5,0,0.8,0.1l-0.1,0.3c-0.3-0.1-0.5-0.1-0.7-0.1c-0.4,0-0.7,0.1-0.9,0.4c-0.2,0.2-0.3,0.6-0.3,1c0,0.4,0.1,0.8,0.3,1
	c0.2,0.2,0.5,0.4,0.8,0.4c0.3,0,0.6-0.1,0.8-0.2v0.3C108.6,204.1,108.4,204.1,108,204.1L108,204.1z M111.6,204.1l-0.1-0.5h0
	c-0.2,0.2-0.3,0.3-0.5,0.4c-0.2,0.1-0.4,0.1-0.6,0.1c-0.3,0-0.6-0.1-0.7-0.2c-0.2-0.2-0.3-0.4-0.3-0.7c0-0.3,0.1-0.5,0.4-0.7
	c0.3-0.2,0.6-0.3,1.1-0.3l0.6,0V202c0-0.3-0.1-0.5-0.2-0.7c-0.1-0.2-0.3-0.2-0.6-0.2c-0.3,0-0.6,0.1-0.9,0.2l-0.1-0.2
	c0.3-0.2,0.7-0.2,1-0.2c0.3,0,0.6,0.1,0.8,0.3c0.2,0.2,0.3,0.5,0.3,0.8v2.1H111.6L111.6,204.1z M110.4,203.9c0.3,0,0.6-0.1,0.8-0.3
	c0.2-0.2,0.3-0.5,0.3-0.8v-0.3l-0.5,0c-0.4,0-0.8,0.1-0.9,0.2c-0.2,0.1-0.3,0.3-0.3,0.5c0,0.2,0.1,0.3,0.2,0.5
	C110,203.8,110.2,203.9,110.4,203.9L110.4,203.9z M113.7,203.9c0.2,0,0.3,0,0.5,0v0.2c-0.1,0-0.3,0.1-0.5,0.1
	c-0.3,0-0.5-0.1-0.6-0.2c-0.1-0.1-0.2-0.4-0.2-0.7v-2h-0.5V201l0.5-0.1l0.1-0.7h0.1v0.8h0.9v0.2h-0.9v2c0,0.2,0,0.4,0.1,0.5
	C113.4,203.8,113.6,203.9,113.7,203.9L113.7,203.9z M115.3,204.1H115v-3.1h0.3V204.1L115.3,204.1z M114.9,200.1
	c0-0.2,0.1-0.3,0.2-0.3c0.1,0,0.1,0,0.1,0.1c0,0,0.1,0.1,0.1,0.2c0,0.1,0,0.2-0.1,0.2c0,0.1-0.1,0.1-0.1,0.1
	C115,200.3,114.9,200.3,114.9,200.1L114.9,200.1z M119,202.5c0,0.5-0.1,0.9-0.4,1.2c-0.2,0.3-0.6,0.4-1,0.4c-0.3,0-0.5-0.1-0.7-0.2
	c-0.2-0.1-0.4-0.3-0.5-0.6c-0.1-0.2-0.2-0.5-0.2-0.9c0-0.5,0.1-0.9,0.4-1.2c0.2-0.3,0.6-0.4,1-0.4c0.4,0,0.8,0.1,1,0.4
	C118.9,201.6,119,202,119,202.5L119,202.5z M116.5,202.5c0,0.4,0.1,0.8,0.3,1c0.2,0.2,0.5,0.4,0.8,0.4c0.3,0,0.6-0.1,0.8-0.4
	c0.2-0.2,0.3-0.6,0.3-1c0-0.4-0.1-0.8-0.3-1c-0.2-0.2-0.5-0.4-0.8-0.4c-0.3,0-0.6,0.1-0.8,0.4C116.6,201.7,116.5,202.1,116.5,202.5
	L116.5,202.5z M122.1,204.1v-2c0-0.3-0.1-0.5-0.2-0.7c-0.1-0.1-0.3-0.2-0.6-0.2c-0.4,0-0.7,0.1-0.8,0.3c-0.2,0.2-0.3,0.5-0.3,0.9
	v1.7h-0.3v-3.1h0.2l0.1,0.4h0c0.2-0.3,0.6-0.5,1.1-0.5c0.7,0,1.1,0.4,1.1,1.1v2.1H122.1L122.1,204.1z"/>
<path class="st6" d="M74.5,117.7c0,0.4-0.1,0.7-0.4,0.9c-0.3,0.2-0.6,0.3-1.1,0.3c-0.5,0-0.9-0.1-1.2-0.2v-0.5
	c0.2,0.1,0.4,0.1,0.6,0.2c0.2,0,0.4,0.1,0.6,0.1c0.3,0,0.6-0.1,0.7-0.2c0.2-0.1,0.2-0.3,0.2-0.5c0-0.1,0-0.3-0.1-0.4
	c-0.1-0.1-0.2-0.2-0.3-0.3c-0.1-0.1-0.3-0.2-0.6-0.3c-0.4-0.1-0.7-0.3-0.8-0.5c-0.2-0.2-0.3-0.4-0.3-0.8c0-0.3,0.1-0.6,0.4-0.8
	c0.2-0.2,0.6-0.3,1-0.3c0.4,0,0.8,0.1,1.2,0.2l-0.2,0.4c-0.3-0.1-0.7-0.2-1-0.2c-0.3,0-0.5,0.1-0.6,0.2c-0.1,0.1-0.2,0.3-0.2,0.5
	c0,0.1,0,0.3,0.1,0.4c0.1,0.1,0.1,0.2,0.3,0.3c0.1,0.1,0.3,0.2,0.6,0.3c0.4,0.2,0.7,0.3,0.9,0.5C74.5,117.2,74.5,117.4,74.5,117.7
	L74.5,117.7z M78.7,114.6v2.7c0,0.5-0.1,0.9-0.4,1.1c-0.3,0.3-0.7,0.4-1.2,0.4c-0.5,0-0.9-0.1-1.2-0.4c-0.3-0.3-0.4-0.7-0.4-1.1
	v-2.7h0.5v2.8c0,0.4,0.1,0.6,0.3,0.8c0.2,0.2,0.5,0.3,0.9,0.3c0.4,0,0.6-0.1,0.8-0.3c0.2-0.2,0.3-0.5,0.3-0.8v-2.8H78.7L78.7,114.6z
	 M83.2,118.8h-0.6l-2.3-3.6h0c0,0.4,0,0.8,0,1.1v2.4h-0.5v-4.2h0.6l2.3,3.5h0c0-0.1,0-0.2,0-0.5c0-0.3,0-0.5,0-0.6v-2.4h0.5V118.8
	L83.2,118.8z M87.4,118.8h-0.3v-3.1c0-0.3,0-0.6,0-0.9c0,0-0.1,0.1-0.1,0.1c0,0-0.3,0.3-0.9,0.7l-0.2-0.2l1.1-0.9h0.2V118.8
	L87.4,118.8z M91.8,118.8h-2.7v-0.3l1.1-1.2c0.3-0.3,0.5-0.6,0.7-0.8c0.1-0.2,0.2-0.3,0.3-0.5c0.1-0.2,0.1-0.3,0.1-0.5
	c0-0.3-0.1-0.5-0.2-0.6c-0.2-0.2-0.4-0.2-0.6-0.2c-0.4,0-0.7,0.1-1,0.4l-0.2-0.2c0.4-0.3,0.7-0.4,1.2-0.4c0.4,0,0.7,0.1,0.9,0.3
	c0.2,0.2,0.3,0.5,0.3,0.8c0,0.3-0.1,0.6-0.2,0.8c-0.1,0.3-0.4,0.6-0.8,1l-1.1,1.1v0h2.3V118.8L91.8,118.8z M96.3,118.8l-1.6-3.9h0
	c0,0.2,0,0.5,0,0.7v3.2h-0.3v-4.2h0.5l1.5,3.7h0l1.5-3.7h0.4v4.2h-0.3v-3.2c0-0.2,0-0.5,0-0.7h0l-1.6,3.9H96.3L96.3,118.8z
	 M101.7,117.3H100l-0.6,1.5h-0.3l1.7-4.3h0.2l1.7,4.3h-0.3L101.7,117.3L101.7,117.3z M100.1,117.1h1.5l-0.6-1.5
	c0-0.1-0.1-0.3-0.2-0.5c-0.1,0.2-0.1,0.4-0.2,0.5L100.1,117.1L100.1,117.1z M103.6,117v1.8h-0.3v-4.2h1c0.5,0,0.9,0.1,1.2,0.3
	c0.2,0.2,0.4,0.5,0.4,0.9c0,0.3-0.1,0.5-0.2,0.7c-0.1,0.2-0.4,0.3-0.7,0.4l1.1,1.9h-0.4l-1.1-1.8H103.6L103.6,117z M103.6,116.7h0.8
	c0.4,0,0.6-0.1,0.8-0.2c0.2-0.2,0.3-0.4,0.3-0.7c0-0.3-0.1-0.6-0.3-0.7c-0.2-0.1-0.5-0.2-0.9-0.2h-0.7V116.7L103.6,116.7z"/>
<path class="st6" d="M90.8,171.5c-0.3,0-0.5-0.1-0.7-0.3c-0.2-0.2-0.3-0.4-0.3-0.7v-1.3c0-0.3,0.1-0.5,0.3-0.7
	c0.2-0.2,0.4-0.3,0.7-0.3c0.3,0,0.5,0.1,0.7,0.3c0.2,0.2,0.3,0.4,0.3,0.7v1.3c0,0.3-0.1,0.5-0.3,0.7C91.3,171.4,91,171.5,90.8,171.5
	L90.8,171.5z M90.8,171L90.8,171c0.1,0,0.2,0,0.3-0.1c0.1-0.1,0.1-0.2,0.1-0.4v-1.3c0-0.2,0-0.3-0.1-0.4c-0.1-0.1-0.2-0.1-0.3-0.1
	c-0.1,0-0.3,0-0.3,0.1c-0.1,0.1-0.1,0.2-0.1,0.4v1.3c0,0.2,0,0.3,0.1,0.4C90.5,170.9,90.6,171,90.8,171L90.8,171z"/>
<path class="st6" d="M86.8,175.9h-4v-0.6l1.6-1.6c0.5-0.5,0.8-0.8,1-1c0.2-0.2,0.3-0.4,0.3-0.6c0.1-0.2,0.1-0.4,0.1-0.6
	c0-0.3-0.1-0.6-0.3-0.8c-0.2-0.2-0.5-0.3-0.8-0.3c-0.3,0-0.5,0-0.7,0.1c-0.2,0.1-0.5,0.2-0.7,0.4l-0.4-0.5c0.6-0.5,1.2-0.7,1.8-0.7
	c0.6,0,1,0.1,1.3,0.4c0.3,0.3,0.5,0.7,0.5,1.2c0,0.4-0.1,0.8-0.3,1.1c-0.2,0.4-0.6,0.8-1.2,1.4l-1.3,1.3v0h3.1V175.9L86.8,175.9z
	 M89.3,175.9h-0.7v-4.3c0-0.4,0-0.7,0-1c-0.1,0.1-0.1,0.1-0.2,0.2c-0.1,0.1-0.4,0.3-1,0.8l-0.4-0.5l1.6-1.2h0.6V175.9L89.3,175.9z"
	/>
</svg>
