<?xml version="1.0" encoding="utf-8"?>
<!-- Generator: Adobe Illustrator 19.0.0, SVG Export Plug-In . SVG Version: 6.00 Build 0)  -->
<svg version="1.1" id="Layer_1" xmlns="http://www.w3.org/2000/svg" xmlns:xlink="http://www.w3.org/1999/xlink" x="0px" y="0px"
	 viewBox="0 0 58.3 38.9" style="enable-background:new 0 0 58.3 38.9;" xml:space="preserve">
<style type="text/css">
	.st0{fill:none;stroke:#E76450;stroke-miterlimit:10;}
</style>
<g>
	<path class="st0" d="M18.1,38.4c4.2,0,8.1-1.5,11.1-4c3,2.5,6.9,4,11.1,4c9.7,0,17.6-7.9,17.6-17.6c0-7.4-4.6-14-11.5-16.5
		C45.7,4,45,4.2,44.4,4.6c-0.1,0-0.1,0-0.2,0h-0.5c-1.3,0-1.3,1.9,0,2c0.1,0.7,0.6,1.3,1.3,1.5c5.3,1.9,8.9,7.1,8.9,12.7
		c0,7.5-6.1,13.6-13.6,13.6c-3.1,0-6-1.1-8.3-2.9c2.3-3,3.7-6.7,3.7-10.7c0-4-1.4-7.7-3.7-10.7c1.1-0.9,2.3-1.5,3.7-2
		c0.8-0.3,1.3-1,1.3-1.8c2.1-1.2,4.1-2.6,6.3-3.9c1.1-0.7,0.1-2.4-1-1.7c-2.1,1.2-4.1,2.6-6.2,3.8c-0.5-0.3-1.2-0.4-1.8-0.2
		C32.4,5,30.7,6,29.2,7.2C27.7,6,26,5,24.1,4.3C23.4,4,22.6,4.2,22,4.7c-0.2-0.1-0.3-0.2-0.6-0.2c-1.3,0-1.3,2,0,2
		C21.6,7.2,22,7.8,22.7,8c1.3,0.5,2.6,1.2,3.7,2c-2.3,3-3.7,6.8-3.7,10.7c0,4,1.4,7.7,3.7,10.7c-2.3,1.8-5.2,2.9-8.3,2.9
		c-7.5,0-13.6-6.1-13.6-13.6C4.5,15.1,8.1,10,13.4,8c0.7-0.3,1.2-0.9,1.3-1.7c1.9-1,3.8-2.2,5.5-3.5c1-0.8,0-2.5-1-1.7
		c-1.7,1.3-3.4,2.4-5.3,3.4C13.4,4.2,12.7,4,12,4.3C5.1,6.8,0.5,13.4,0.5,20.8C0.5,30.5,8.4,38.4,18.1,38.4z M29.2,13
		c1.6,2.2,2.5,4.9,2.5,7.8c0,2.9-0.9,5.6-2.5,7.8c-1.5-2.2-2.5-4.9-2.5-7.8C26.7,18,27.6,15.3,29.2,13z"/>
</g>
</svg>
