<?xml version="1.0" encoding="utf-8"?>
<!-- Generator: Adobe Illustrator 19.0.0, SVG Export Plug-In . SVG Version: 6.00 Build 0)  -->
<svg version="1.1" id="Layer_1" xmlns="http://www.w3.org/2000/svg" xmlns:xlink="http://www.w3.org/1999/xlink" x="0px" y="0px"
	 viewBox="0 0 59.7 44.9" style="enable-background:new 0 0 59.7 44.9;" xml:space="preserve">
<style type="text/css">
	.st0{fill:none;stroke:#E76450;stroke-miterlimit:10;}
</style>
<g>
	<path class="st0" d="M44.2,32.9c-3.6,1.1-7.4,1.2-11-0.2c-3.3-1.3-5.8-4-7.9-6.7c-2.7-3.5-5.1-7.2-7.7-10.8
		C14.5,11.1,11.1,7.1,7.8,3C5.3,4.7-2.9,10.8,2,19.8C7.8,30.5,4,43,4.9,43.6s2.6,0.1,2.6,0.1c-1.5-17.9,0-19.4,0-19.4
		c12-4.1,13.3,19.4,27,20s24.6-4.5,24.6-4.5C59.5,35.5,47.4,35.9,44.2,32.9z"/>
	<path class="st0" d="M32.5,31.3c3.5,1.7,7.2,1.8,10.9,0.8c-3.1-2.2-9.9,2.2-18-10.4C17.9,10.1,10.7,4.2,9,2.9
		c5.4,6.7,10.6,13.4,15.6,20.4C26.7,26.3,29.1,29.6,32.5,31.3z"/>
</g>
</svg>
